<?xml version="1.0" standalone="no"?>
<!DOCTYPE svg PUBLIC "-//W3C//DTD SVG 1.1//EN" "http://www.w3.org/Graphics/SVG/1.1/DTD/svg11.dtd" >
<svg xmlns="http://www.w3.org/2000/svg" xmlns:xlink="http://www.w3.org/1999/xlink" version="1.1">
<metadata>
Created by FontForge 20161013 at Wed Jul 18 00:54:06 2007
 By ,,,
Copyright (c) 2007 by Prinya R. nont. All rights reserved.
</metadata>
<defs>
<font id="DBAdmanX-LightItalic" horiz-adv-x="0" >
  <font-face 
    font-family="DB Adman X"
    font-weight="300"
    font-style="italic"
    font-stretch="normal"
    units-per-em="1000"
    panose-1="2 0 5 6 9 0 0 2 0 4"
    ascent="800"
    descent="-200"
    x-height="365"
    cap-height="528"
    bbox="-336 -323 983 775"
    underline-thickness="20"
    underline-position="-153"
    unicode-range="U+0020-25CC"
  />
<missing-glyph horiz-adv-x="414" 
d="M421 400v-14h6q7 0 7 9q0 1 -1.5 3t-5.5 2h-6zM424 385h-3v-14h-5v34h11q12 0 12 -10q0 -7 -3 -8.5t-7 -1.5l10 -14h-5zM427 366q13 0 17.5 7t4.5 13q0 24 -22 24q-23 0 -23 -24q0 -8 5.5 -14t17.5 -6zM427 413q13 0 19 -8t6 -19q0 -8 -6 -15.5t-19 -7.5q-12 0 -19 7.5
t-7 15.5q0 11 7 19t19 8zM200 316q16 -1 37.5 -4t43 -7t39.5 -9.5t27 -12.5q-20 40 -62 61.5t-86 21.5q-34 0 -65 -13t-51 -40q18 2 36 3t36 1h22.5t22.5 -1zM374 395v-142q-48 15 -109.5 25.5t-130.5 10.5q-48 0 -94 -6q6 22 19 42.5t33 36t46.5 24.5t58.5 9q31 0 56 -7
t43.5 -17t31.5 -22t19 -21q0 -1 0 6.5t-0.5 18.5t-0.5 23v19h28zM152 127q0 8 -5.5 12t-11.5 4q-7 0 -12 -4t-5 -12t5 -11.5t12 -3.5q6 0 11.5 3.5t5.5 11.5zM31 139q0 23 9 41t24 30t34 18t39 6t38.5 -5.5t33 -16.5t23 -28t8.5 -41v-116h106v202h28v-228h-189v26h29v119
q0 30 -22 45t-54 15q-30 0 -54 -16.5t-24 -46.5v-107l58 58q-5 2 -13 10t-8 23q0 18 11 28.5t29 10.5q17 0 27.5 -11.5t10.5 -27.5q0 -14 -5.5 -21.5t-9.5 -11.5q-2 -2 -17 -16.5t-33 -31.5q-11 -10 -22.5 -21t-24.5 -24h-32v138z" />
    <glyph glyph-name="plusminus" unicode="&#x2b;&#x2d;" horiz-adv-x="380" 
d="M241 204l-25 -145h-35l25 145h-145l5 35h145l25 146h35l-25 -146h146l-5 -35h-146zM27 0l5 35h326l-5 -35h-326z" />
    <glyph glyph-name="ellipsis" unicode="&#x2e;&#x2e;&#x2e;" horiz-adv-x="448" 
d="M410 31q-2 -14 -14.5 -24.5t-26.5 -10.5t-22.5 10.5t-6.5 24.5t14.5 24.5t26.5 10.5t22.5 -10.5t6.5 -24.5zM264 31q-2 -14 -14.5 -24.5t-26.5 -10.5t-22.5 10.5t-6.5 24.5t14.5 24.5t26.5 10.5t22 -10.5t6 -24.5h1zM118 31q-2 -14 -14.5 -24.5t-26.5 -10.5t-22.5 10.5
t-6.5 24.5t14.5 24.5t26.5 10.5t22 -10.5t6 -24.5h1z" />
    <glyph glyph-name="lessequal" unicode="&#x3c;&#x3d;" horiz-adv-x="372" 
d="M70 257l6 41l344 157l-7 -37l-300 -140l252 -150l-6 -35zM348 28l-6 -35l-289 164l7 43z" />
    <glyph glyph-name="greaterequal" unicode="&#x3e;&#x3d;" horiz-adv-x="372" 
d="M42 93l6 35l302 150l-254 140l7 37l290 -157l-6 -41zM377 200l-7 -43l-345 -164l6 35z" />
    <glyph glyph-name="fongmanfunnuthai" unicode="&#xe4f;&#x22;" horiz-adv-x="513" 
d="M383 443h-28l13 129h44zM300 443h-26l13 129h43zM498 202q-7 -44 -30 -82t-56.5 -66.5t-74.5 -45t-84 -16.5t-78.5 16.5t-59.5 45t-34 66.5t-3 82q7 43 30 81.5t56.5 67t74.5 45t84 16.5t78.5 -16.5t59.5 -45t34 -67t3 -81.5zM461 201q6 36 -2.5 67.5t-28 55t-48.5 37.5
t-65 14t-69.5 -13.5t-61 -37t-46.5 -55t-25 -67.5t2.5 -67.5t28 -55t48.5 -37t65 -13.5t69.5 13.5t60.5 37t46 55t25 67.5zM395 202q-4 -22 -15.5 -41.5t-28.5 -34t-38 -23t-43 -8.5t-40 8.5t-30.5 23t-17.5 34t-1 41.5t15.5 41.5t28.5 34t37.5 23t43.5 8.5q22 0 40 -8.5
t30.5 -23t17.5 -34t1 -41.5zM359 202q5 30 -12 50.5t-47 20.5t-54 -20.5t-29 -50.5t12 -50.5t47 -20.5t54 20.5t29 50.5z" />
    <glyph glyph-name="dochadaphinthuthai" unicode="&#xe0e;&#xe3a;" horiz-adv-x="465" 
d="M389 -224q-2 -12 -12 -20.5t-22 -8.5q-13 0 -20 8.5t-5 20.5t12 21t22 9q13 0 20 -9t5 -21zM296 -168q-53 47 -128 47q-79 0 -144 -47l-17 26q38 26 79.5 40.5t86.5 14.5q37 0 69 -10t58 -27l77 65l53 321q6 36 -2 65.5t-27 50.5t-48 32.5t-65 11.5q-45 0 -86.5 -23
t-70.5 -56l30 -41l-50 -302h-81l5 35h46l43 257l-35 50q17 24 40 45t50 36t56 24t59 9q45 0 80 -14.5t57.5 -40t31.5 -61.5t2 -78l-56 -335z" />
    <glyph glyph-name="topatakphintuthai" unicode="&#xe0f;&#xe3a;" horiz-adv-x="465" 
d="M296 -169l-63 74l-88 -74l-91 108l29 24l70 -83l89 74l63 -75l71 61l54 321q6 36 -2 65.5t-27 50.5t-48 32.5t-65 11.5q-45 0 -86.5 -22.5t-70.5 -55.5l30 -41l-50 -302h-81l5 35h46l43 256l-35 50q18 24 41 45t49.5 36.5t55.5 24.5t59 9q45 0 80 -14.5t57.5 -40.5
t31.5 -62t2 -78l-56 -334zM389 -224q-2 -12 -12 -20.5t-22 -8.5q-13 0 -20 8.5t-5 20.5t12 21t22 9q13 0 20 -9t5 -21z" />
    <glyph glyph-name="dochadasarauthai" unicode="&#xe0e;&#xe38;" horiz-adv-x="465" 
d="M296 -168q-53 47 -128 47q-79 0 -144 -47l-17 26q38 26 79.5 40.5t86.5 14.5q37 0 69 -10t58 -27l77 65l53 321q6 36 -2 65.5t-27 50.5t-48 32.5t-65 11.5q-45 0 -86.5 -23t-70.5 -56l30 -41l-50 -302h-81l5 35h46l43 257l-35 50q17 24 40 45t50 36t56 24t59 9
q45 0 80 -14.5t57.5 -40t31.5 -61.5t2 -78l-56 -335zM335 -315l14 82h-41l5 34h54q9 0 14.5 -6.5t3.5 -14.5l-16 -95h-34z" />
    <glyph glyph-name="topataksarauthai" unicode="&#xe0f;&#xe38;" horiz-adv-x="465" 
d="M296 -169l-63 74l-88 -74l-91 108l29 24l70 -83l89 74l63 -75l71 61l54 321q6 36 -2 65.5t-27 50.5t-48 32.5t-65 11.5q-45 0 -86.5 -22.5t-70.5 -55.5l30 -41l-50 -302h-81l5 35h46l43 256l-35 50q18 24 41 45t49.5 36.5t55.5 24.5t59 9q45 0 80 -14.5t57.5 -40.5
t31.5 -62t2 -78l-56 -334zM335 -315l14 82h-41l5 34h54q9 0 14.5 -6.5t3.5 -14.5l-16 -95h-34z" />
    <glyph glyph-name="dochadasarauuthai" unicode="&#xe0e;&#xe39;" horiz-adv-x="465" 
d="M296 -168q-53 47 -128 47q-79 0 -144 -47l-17 26q38 26 79.5 40.5t86.5 14.5q37 0 69 -10t58 -27l77 65l53 321q6 36 -2 65.5t-27 50.5t-48 32.5t-65 11.5q-45 0 -86.5 -23t-70.5 -56l30 -41l-50 -302h-81l5 35h46l43 257l-35 50q17 24 40 45t50 36t56 24t59 9
q45 0 80 -14.5t57.5 -40t31.5 -61.5t2 -78l-56 -335zM380 -250q-5 -30 -30.5 -51.5t-55.5 -21.5t-47 21.5t-12 51.5l2 15h-31l6 36h65l-8 -51q-3 -16 6 -27t25 -11t28.5 11.5t15.5 26.5l8 51h36z" />
    <glyph glyph-name="topataksarauuthai" unicode="&#xe0f;&#xe39;" horiz-adv-x="465" 
d="M296 -169l-63 74l-88 -74l-91 108l29 24l70 -83l89 74l63 -75l71 61l54 321q6 36 -2 65.5t-27 50.5t-48 32.5t-65 11.5q-45 0 -86.5 -22.5t-70.5 -55.5l30 -41l-50 -302h-81l5 35h46l43 256l-35 50q18 24 41 45t49.5 36.5t55.5 24.5t59 9q45 0 80 -14.5t57.5 -40.5
t31.5 -62t2 -78l-56 -334zM380 -250q-5 -30 -30.5 -51.5t-55.5 -21.5t-47 21.5t-12 51.5l2 15h-31l6 36h65l-8 -51q-3 -16 6 -27t25 -11t28.5 11.5t15.5 26.5l8 51h36z" />
    <glyph glyph-name=".notdef" horiz-adv-x="414" 
d="M421 400v-14h6q7 0 7 9q0 1 -1.5 3t-5.5 2h-6zM424 385h-3v-14h-5v34h11q12 0 12 -10q0 -7 -3 -8.5t-7 -1.5l10 -14h-5zM427 366q13 0 17.5 7t4.5 13q0 24 -22 24q-23 0 -23 -24q0 -8 5.5 -14t17.5 -6zM427 413q13 0 19 -8t6 -19q0 -8 -6 -15.5t-19 -7.5q-12 0 -19 7.5
t-7 15.5q0 11 7 19t19 8zM200 316q16 -1 37.5 -4t43 -7t39.5 -9.5t27 -12.5q-20 40 -62 61.5t-86 21.5q-34 0 -65 -13t-51 -40q18 2 36 3t36 1h22.5t22.5 -1zM374 395v-142q-48 15 -109.5 25.5t-130.5 10.5q-48 0 -94 -6q6 22 19 42.5t33 36t46.5 24.5t58.5 9q31 0 56 -7
t43.5 -17t31.5 -22t19 -21q0 -1 0 6.5t-0.5 18.5t-0.5 23v19h28zM152 127q0 8 -5.5 12t-11.5 4q-7 0 -12 -4t-5 -12t5 -11.5t12 -3.5q6 0 11.5 3.5t5.5 11.5zM31 139q0 23 9 41t24 30t34 18t39 6t38.5 -5.5t33 -16.5t23 -28t8.5 -41v-116h106v202h28v-228h-189v26h29v119
q0 30 -22 45t-54 15q-30 0 -54 -16.5t-24 -46.5v-107l58 58q-5 2 -13 10t-8 23q0 18 11 28.5t29 10.5q17 0 27.5 -11.5t10.5 -27.5q0 -14 -5.5 -21.5t-9.5 -11.5q-2 -2 -17 -16.5t-33 -31.5q-11 -10 -22.5 -21t-24.5 -24h-32v138z" />
    <glyph glyph-name=".null" 
 />
    <glyph glyph-name="nonmarkingreturn" horiz-adv-x="283" 
 />
    <glyph glyph-name="space" unicode=" " horiz-adv-x="250" 
 />
    <glyph glyph-name="exclam" unicode="!" horiz-adv-x="195" 
d="M172 312l-47 -209h-22l24 209l36 216h45zM136 29q-2 -14 -14 -24t-26 -10t-23 10t-7 24q3 15 15 25t26 10t23 -10t6 -25z" />
    <glyph glyph-name="quotedbl" unicode="&#x22;" horiz-adv-x="181" 
d="M199 358h-23l21 172h39zM121 358h-21l21 172h38z" />
    <glyph glyph-name="numbersign" unicode="#" horiz-adv-x="413" 
d="M350 304l-35 -108h80l-6 -38h-87l-51 -158h-36l50 158h-86l-49 -158h-37l48 158h-82l6 38h88l33 108h-84l7 38h89l46 147h39l-46 -147h88l45 147h39l-46 -147h74l-7 -38h-80zM224 304l-34 -108h88l33 108h-87z" />
    <glyph glyph-name="dollar" unicode="$" horiz-adv-x="413" 
d="M388 148q-5 -28 -19 -53t-35 -45.5t-46.5 -34.5t-53.5 -20l-14 -79h-36l13 77q-106 7 -130 117l35 15q10 -42 35 -67.5t67 -25.5l39 235q-20 11 -39.5 22.5t-34.5 26.5t-22.5 35t-2.5 49q10 55 49 91.5t94 42.5l12 74h36l-13 -77q32 -5 56 -23t37 -49l-34 -24
q-10 23 -25.5 39.5t-38.5 21.5l-35 -204q22 -12 43.5 -24t37.5 -28t23.5 -38t1.5 -54zM282 496q-38 -4 -65.5 -32t-33.5 -63q-3 -18 1.5 -31t14 -23.5t22.5 -19.5t28 -17zM351 151q3 19 -2.5 33.5t-16.5 26.5t-26 21t-31 17l-36 -215q45 12 75 43.5t37 73.5z" />
    <glyph glyph-name="percent" unicode="%" horiz-adv-x="443" 
d="M295 427q-4 -22 -15.5 -41t-28 -33t-37 -22t-42.5 -8t-40 8t-30.5 22t-17.5 33t-1 41q4 23 15.5 42.5t28 33.5t37 22t43.5 8q21 0 39 -8t30.5 -22t17.5 -33.5t1 -42.5zM78 -13l-22 16l395 537l25 -13zM447 101q-4 -23 -15.5 -42t-28 -33t-37 -22t-42.5 -8t-40 8t-30.5 22
t-18 33t-1.5 42q4 22 15.5 41.5t28.5 33t37.5 21.5t43.5 8q43 0 69.5 -29.5t18.5 -74.5zM262 427q5 30 -13.5 50.5t-47.5 20.5t-54 -20t-30 -51q-5 -29 13 -49.5t47 -20.5t54 20.5t30 49.5h1zM414 101q5 30 -13.5 50.5t-47.5 20.5q-30 0 -55 -20.5t-30 -50.5
q-5 -31 13.5 -51t48.5 -20q15 0 29 5.5t25.5 15t19.5 22.5t10 28z" />
    <glyph glyph-name="ampersand" unicode="&#x26;" horiz-adv-x="493" 
d="M461 -1l-71 100q-48 -42 -98.5 -74t-101.5 -37q-29 -2 -53 7t-41 26t-25.5 41.5t-5.5 53.5q2 34 19 63.5t42 54t54.5 46t56.5 40.5q-19 23 -34 49t-13 60q1 21 11 40t25.5 34t35 24.5t40.5 11.5t38.5 -4.5t29.5 -19t17.5 -30t3.5 -36.5q-3 -45 -34 -77t-72 -61l113 -160
l73 73l25 -22l-79 -78l86 -124zM353 445q2 26 -13.5 43.5t-41.5 15.5q-14 -1 -26 -8t-21 -18t-15 -24t-7 -26q-2 -26 12 -47t26 -41q14 11 28.5 22t27.5 24q13 12 21 26.5t9 32.5zM255 291l-32 -23q-19 -14 -39.5 -29.5t-38 -33t-29 -38t-13.5 -45.5q-2 -21 4 -40t18 -32.5
t29.5 -21t38.5 -5.5q22 2 45 12t45.5 25t44.5 32.5t42 35.5z" />
    <glyph glyph-name="quotesingle" unicode="'" horiz-adv-x="142" 
d="M141 357h-22l21 174h38z" />
    <glyph glyph-name="parenleft" unicode="(" horiz-adv-x="178" 
d="M251 539q-19 -23 -33 -45.5t-29 -47.5q-30 -52 -51 -108t-31 -114q-8 -49 -9 -90t4 -79t15.5 -75.5t25.5 -80.5l-31 -2q-34 73 -45.5 158.5t2.5 170.5t54 164t97 151z" />
    <glyph glyph-name="parenright" unicode=")" horiz-adv-x="178" 
d="M182 226q-6 -40 -20 -83.5t-34 -86.5t-45 -84t-53 -75h-30q28 42 51 80t41 77t31.5 80.5t21.5 89.5q11 63 7 122t-19 116q-7 21 -11.5 40t-14.5 39h31q31 -72 44.5 -151t-0.5 -164z" />
    <glyph glyph-name="asterisk" unicode="*" horiz-adv-x="352" 
d="M269 395l48 -83l-35 -25l-42 81l-7 -7l-22 -25l-45 -49l-26 25l76 83l-94 29l19 37l90 -33l13 103h40l-20 -103l102 33l5 -37z" />
    <glyph glyph-name="plus" unicode="+" horiz-adv-x="380" 
d="M236 172l-24 -145h-35l24 145h-146l6 35h145l25 146h35l-25 -146h146l-6 -35h-145z" />
    <glyph glyph-name="comma" unicode="," horiz-adv-x="148" 
d="M119 14q-4 -23 -26 -49.5t-57 -46.5l-12 13q24 14 38 29.5t28 36.5q-5 -2 -10 -3.5t-11 -1.5q-14 0 -22 10t-6 24t14.5 25t28.5 11q21 0 29.5 -15t5.5 -33z" />
    <glyph glyph-name="hyphen" unicode="-" horiz-adv-x="257" 
d="M68 173l6 35h177l-6 -35h-177z" />
    <glyph glyph-name="period" unicode="." horiz-adv-x="148" 
d="M113 27q-2 -14 -14.5 -24.5t-26.5 -10.5t-22.5 10.5t-6.5 24.5t14.5 24.5t26.5 10.5t22.5 -10.5t6.5 -24.5z" />
    <glyph glyph-name="slash" unicode="/" horiz-adv-x="395" 
d="M58 0h-41l417 580l38 1z" />
    <glyph glyph-name="zero" unicode="0" horiz-adv-x="380" 
d="M414 267q-9 -54 -29.5 -103.5t-50 -87.5t-67 -60.5t-79.5 -22.5t-71.5 22.5t-46 60.5t-20.5 87.5t5 103.5t29.5 103t50 85.5t66 58t78.5 21.5t71.5 -21.5t46.5 -58t21.5 -85.5t-4.5 -103zM374 267q7 42 4.5 83.5t-14.5 74.5t-35 53.5t-56 20.5t-62.5 -20.5t-53 -53.5
t-40 -74.5t-23.5 -83.5q-8 -47 -5.5 -90t15 -76t35 -53t55.5 -20t62.5 20t52.5 53t39.5 76t24.5 90h1z" />
    <glyph glyph-name="one" unicode="1" horiz-adv-x="380" 
d="M188 0l82 492h-94l6 36h131l-88 -528h-37z" />
    <glyph glyph-name="two" unicode="2" horiz-adv-x="380" 
d="M411 379q-5 -27 -18 -51t-30.5 -46t-38 -42.5t-41.5 -38.5l-188 -166h256l-5 -35h-312l5 30l213 188q18 15 38 34.5t37.5 41t30 44t15.5 43.5q4 25 -2 46.5t-19.5 37.5t-33.5 25t-44 9q-51 0 -90 -33.5t-49 -90.5h-39q7 39 26 68.5t44.5 50t55 31t58.5 10.5q31 0 58 -12
t45 -33t26 -49.5t2 -61.5z" />
    <glyph glyph-name="three" unicode="3" horiz-adv-x="380" 
d="M361 149q-5 -33 -20.5 -61.5t-39 -49.5t-54 -33t-64.5 -12q-29 0 -53.5 10t-41.5 28t-24.5 44t-2.5 58h37q-2 -48 21 -76.5t69 -28.5q25 0 48 9.5t41 26t30 38t16 45.5q8 51 -19.5 79.5t-78.5 30.5l5 35q51 3 85 32t42 75q8 42 -15 71t-67 29q-42 0 -72 -26t-42 -74h-37
q17 64 57.5 100t100.5 36q29 0 52.5 -10.5t38.5 -29.5t21 -44t1 -53q-6 -38 -30.5 -70t-63.5 -52q36 -20 51.5 -54t8.5 -73z" />
    <glyph glyph-name="four" unicode="4" horiz-adv-x="380" 
d="M316 99l-16 -99h-38l16 99h-255l4 25l341 404h19l-66 -392h63l-6 -37h-62zM335 440l-253 -304h201z" />
    <glyph glyph-name="five" unicode="5" horiz-adv-x="380" 
d="M385 180q-7 -41 -27.5 -75t-50 -59t-66 -39t-75.5 -14q-46 0 -83 22.5t-56 68.5l36 15q17 -33 46 -52t64 -19q32 0 61 11.5t52.5 32t39.5 48.5t22 61q5 31 -2.5 57t-24.5 45.5t-41.5 30.5t-54.5 11q-32 0 -64.5 -11.5t-55.5 -23.5l40 238h250l-6 -36h-212l-25 -149
q23 8 43 12.5t43 4.5q37 0 67 -14t49.5 -38.5t28 -57.5t2.5 -70z" />
    <glyph glyph-name="six" unicode="6" horiz-adv-x="380" 
d="M396 178q-6 -35 -25.5 -68t-46.5 -59q-29 -29 -64.5 -43.5t-71.5 -14.5t-65.5 14.5t-49 39t-28 58.5t-2.5 73q6 34 20 61.5t37 54.5l192 234h46l-144 -174q31 10 59 10q36 0 65 -15t48.5 -40.5t27.5 -59.5t2 -71zM356 179q5 31 -1.5 58t-21.5 47t-38 32t-51 12t-54.5 -12
t-48.5 -32t-37.5 -47t-20.5 -58t1.5 -58.5t21.5 -47.5t37.5 -32t50.5 -12t54.5 12t48.5 32t37.5 47.5t20.5 58.5h1z" />
    <glyph glyph-name="seven" unicode="7" horiz-adv-x="380" 
d="M88 0h-43l366 491h-304l6 37h348l-6 -34z" />
    <glyph glyph-name="eight" unicode="8" horiz-adv-x="380" 
d="M365 139q-5 -32 -21.5 -58.5t-41 -46t-54 -30.5t-60.5 -11q-30 0 -55.5 11t-43 30.5t-25 46t-2.5 58.5q8 45 32 79t72 57q-31 21 -43 52.5t-7 66.5q5 30 20 56t37 44.5t49.5 29.5t56.5 11q30 0 53.5 -11t39 -29.5t22 -44.5t1.5 -56q-5 -35 -28 -66.5t-59 -52.5
q72 -46 57 -136zM359 395q6 43 -18.5 73.5t-67.5 30.5q-21 0 -41 -8t-36.5 -22.5t-27.5 -33.5t-14 -40q-4 -21 0.5 -40t16 -33t29 -22t38.5 -8t41 8t36 22t27.5 33t15.5 40h1zM328 142q4 24 -1.5 44.5t-19 36t-33 24.5t-42.5 9t-45.5 -9t-40.5 -24.5t-30.5 -36t-16.5 -44.5
t2 -44.5t18.5 -36t32 -24.5t42.5 -9t45.5 9t41 24.5t31 36t16.5 44.5z" />
    <glyph glyph-name="nine" unicode="9" horiz-adv-x="380" 
d="M425 347q-6 -32 -21 -59.5t-35 -53.5l-191 -234h-47l151 180q-18 -10 -33.5 -12.5t-33.5 -2.5q-35 0 -64 14.5t-48.5 40t-27.5 59t-2 71.5q6 39 26.5 73t49 58.5t63 39t69.5 14.5q37 0 66.5 -14.5t49 -39.5t27 -59.5t1.5 -74.5zM385 350q5 31 -1 58t-21 47t-37.5 31.5
t-50.5 11.5t-55 -11.5t-49 -31.5t-37.5 -47t-20.5 -58t1.5 -58t21.5 -47.5t38 -32t51 -11.5q27 0 53.5 11.5t48 32t37 47.5t20.5 58h1z" />
    <glyph glyph-name="colon" unicode=":" horiz-adv-x="148" 
d="M158 294q-2 -14 -14.5 -24.5t-26.5 -10.5t-22.5 10.5t-6.5 24.5t14.5 24.5t26.5 10.5t22.5 -10.5t6.5 -24.5zM113 27q-2 -14 -14.5 -24.5t-26.5 -10.5t-22.5 10.5t-6.5 24.5t14.5 24.5t26.5 10.5t22.5 -10.5t6.5 -24.5z" />
    <glyph glyph-name="semicolon" unicode=";" horiz-adv-x="148" 
d="M158 294q-2 -14 -14.5 -24.5t-26.5 -10.5t-22.5 10.5t-6.5 24.5t14.5 24.5t26.5 10.5t22.5 -10.5t6.5 -24.5zM119 14q-4 -23 -26 -49.5t-57 -46.5l-12 13q24 14 38 29.5t28 36.5q-5 -2 -10 -3.5t-11 -1.5q-14 0 -22 10t-6 24t14.5 25t28.5 11q21 0 29.5 -15t5.5 -33z" />
    <glyph glyph-name="less" unicode="&#x3c;" horiz-adv-x="372" 
d="M53 157l7 41l343 157l-6 -37l-301 -140l252 -150l-6 -35z" />
    <glyph glyph-name="equal" unicode="=" horiz-adv-x="380" 
d="M63 218l6 35h326l-6 -35h-326zM48 127l6 36h326l-6 -36h-326z" />
    <glyph glyph-name="greater" unicode="&#x3e;" horiz-adv-x="372" 
d="M25 -7l6 35l303 150l-254 140l6 37l291 -157l-7 -41z" />
    <glyph glyph-name="question" unicode="?" horiz-adv-x="342" 
d="M379 406q-4 -24 -14.5 -42.5t-25.5 -35t-32 -31.5t-34 -31q-18 -17 -32 -35.5t-18 -41.5l-12 -75h-38l12 77q6 35 29 60.5t49.5 48.5t49.5 48t29 59q3 17 -1 34.5t-15 31t-29.5 22t-44.5 8.5q-28 0 -52 -10t-41.5 -27t-26.5 -40t-6 -49h-40q-2 33 11.5 62t37 51t55.5 35
t68 13q34 0 58.5 -10.5t40 -28.5t21 -42t1.5 -51zM212 28q-2 -15 -14.5 -25.5t-26.5 -10.5t-22.5 10.5t-6.5 25.5q2 14 14.5 24.5t26.5 10.5t22 -10.5t6 -24.5h1z" />
    <glyph glyph-name="at" unicode="@" horiz-adv-x="552" 
d="M582 309q-7 -42 -28.5 -79.5t-50 -65t-60.5 -43.5t-61 -16q-35 0 -49 32q-26 -18 -50 -25t-45 -7q-48 0 -67 30t-11 75q6 35 24.5 73.5t46 70.5t63 52.5t75.5 20.5q23 0 42.5 -10t33.5 -33l14 29h36l-112 -228q-2 -7 -7 -16.5t-4 -16.5q1 -5 6 -9t20 -4q21 0 45.5 16.5
t46 41.5t38 55.5t21.5 58.5q7 43 -5 78t-37.5 60t-61 38.5t-74.5 13.5q-48 0 -93.5 -19.5t-83 -52.5t-63 -76.5t-33.5 -91.5q-8 -47 4 -90t39 -75t66 -51t86 -19q57 0 112 23.5t94 71.5l45 1q-45 -63 -111.5 -96t-145.5 -33q-57 0 -102 21.5t-75 58.5t-42 86.5t-3 106.5
q9 56 38.5 105t72 85.5t94 57.5t105.5 21q51 0 93 -17t70 -47t40 -71.5t4 -90.5zM414 321q4 9 2.5 21t-8.5 23t-19.5 19t-31.5 8q-27 0 -54 -18t-49.5 -45t-38.5 -58t-20 -57q-5 -30 10 -53t50 -22q16 0 33 7.5t32 19t26.5 25.5t18.5 28z" />
    <glyph glyph-name="A" unicode="A" horiz-adv-x="437" 
d="M398 0l-41 172h-222l-96 -172h-39l299 528h17l120 -528h-38zM293 452l-138 -244h194z" />
    <glyph glyph-name="B" unicode="B" horiz-adv-x="380" 
d="M381 148q-6 -38 -24 -66t-44.5 -46t-59 -27t-66.5 -9h-139l88 528h110q70 0 106 -33.5t23 -107.5q-5 -34 -22.5 -59.5t-50.5 -45.5q45 -15 66 -50.5t13 -83.5zM338 392q5 30 -2 49.5t-22 30.5t-37.5 15.5t-49.5 4.5h-60l-34 -202h60q61 0 96.5 22.5t48.5 79.5zM343 147
q5 29 -4 54t-32 37q-21 11 -50 14t-55 3h-75l-37 -220h82q29 0 57 5t51.5 17.5t40 34t22.5 55.5z" />
    <glyph glyph-name="C" unicode="C" horiz-adv-x="458" 
d="M448 46q-38 -26 -79.5 -39.5t-83.5 -13.5q-54 0 -99.5 21.5t-76 58t-44 85.5t-4.5 105t39 105.5t73 86.5t96 58.5t108 21.5q84 0 144 -54l-25 -31q-58 49 -127 49q-47 0 -92.5 -19.5t-82.5 -52t-62.5 -76t-33.5 -91.5q-8 -45 4 -87t38.5 -74t65 -51.5t84.5 -19.5
q34 0 70.5 12t72.5 37z" />
    <glyph glyph-name="D" unicode="D" horiz-adv-x="434" 
d="M462 263q-10 -60 -39 -109t-71.5 -83t-96 -52.5t-112.5 -18.5h-95l88 528h95q60 0 107.5 -18.5t78.5 -52.5t43 -83.5t2 -110.5zM424 263q9 52 -1.5 94.5t-37.5 72.5t-68 46t-93 16h-57l-77 -457h57q51 0 97.5 16t83 46t61.5 72t34 94h1z" />
    <glyph glyph-name="E" unicode="E" horiz-adv-x="336" 
d="M48 0l88 528h251l-6 -36h-214l-31 -186h208l-6 -36h-208l-40 -235h214l-5 -35h-251z" />
    <glyph glyph-name="F" unicode="F" horiz-adv-x="289" 
d="M167 492l-31 -186h176l-6 -36h-175l-45 -270h-38l88 528h217l-6 -36h-180z" />
    <glyph glyph-name="G" unicode="G" horiz-adv-x="576" 
d="M599 264q-9 -56 -37.5 -105.5t-70 -86.5t-93.5 -58t-109 -21t-103 21t-77 58t-44 86.5t-4 105.5t39 105.5t73.5 86t97 58t109.5 21.5q72 0 125.5 -32t82.5 -89l-34 -23q-25 49 -71 77.5t-109 28.5q-49 0 -95 -18.5t-83.5 -50t-63 -74t-33.5 -90.5t3.5 -90.5t38 -74
t66.5 -50t89 -18.5q45 0 87.5 16.5t77 45.5t59.5 68t36 84h-229l7 38h267q-1 -6 -1 -10t-1 -9z" />
    <glyph glyph-name="H" unicode="H" horiz-adv-x="478" 
d="M393 0l45 269h-307l-45 -269h-38l88 528h37l-37 -222h307l37 222h38l-88 -528h-37z" />
    <glyph glyph-name="I" unicode="I" horiz-adv-x="135" 
d="M48 0l88 528h38l-88 -528h-38z" />
    <glyph glyph-name="J" unicode="J" horiz-adv-x="140" 
d="M87 -24q-3 -18 -13 -34.5t-24 -29t-31.5 -19.5t-35.5 -7q-19 0 -34 7.5t-26 20.5l32 27q14 -17 35 -17q20 0 37.5 15.5t20.5 36.5l93 552h39z" />
    <glyph glyph-name="K" unicode="K" horiz-adv-x="386" 
d="M342 0l-202 251l-15 -13l-39 -238h-37l88 528h37l-40 -241l280 241h50l-294 -253l223 -275h-51z" />
    <glyph glyph-name="L" unicode="L" horiz-adv-x="223" 
d="M48 0l88 528h37l-83 -493h132l-5 -35h-169z" />
    <glyph glyph-name="M" unicode="M" horiz-adv-x="601" 
d="M563 0l-12 430l-241 -430h-16l-101 430l-156 -430h-37l195 528h13l105 -455l257 455h13l18 -528h-38z" />
    <glyph glyph-name="N" unicode="N" horiz-adv-x="564" 
d="M502 0l-341 454l-75 -454h-38l88 528h16l339 -449l75 449h38l-88 -528h-14z" />
    <glyph glyph-name="O" unicode="O" horiz-adv-x="572" 
d="M599 264q-9 -56 -39 -105.5t-73.5 -86t-96 -58t-106.5 -21.5q-55 0 -100 21.5t-75.5 58t-43.5 86t-4 105.5q9 55 38.5 104.5t72.5 86.5t95.5 58.5t107.5 21.5q54 0 99.5 -21.5t76 -58.5t44 -86.5t4.5 -104.5zM561 264q8 48 -3.5 90.5t-37.5 74.5t-65 51t-86 19
q-48 0 -93 -19t-82 -51t-62 -74.5t-33 -90.5t3 -90.5t37 -75t64.5 -51.5t86.5 -19q47 0 92 19t82 51.5t62.5 75t33.5 90.5h1z" />
    <glyph glyph-name="P" unicode="P" horiz-adv-x="312" 
d="M365 387q-5 -28 -20.5 -56.5t-40.5 -48.5q-28 -21 -60 -27t-62 -6h-55l-41 -249h-38l88 528h93q30 0 58 -5t50 -26q20 -21 26.5 -49.5t1.5 -60.5zM329 389q4 24 -3 46.5t-24 35.5q-15 16 -37 18.5t-45 2.5h-53l-35 -208h57q25 0 48 5t46 23q37 30 45 77h1z" />
    <glyph glyph-name="Q" unicode="Q" horiz-adv-x="572" 
d="M599 266q-9 -54 -35 -100t-71 -89l57 -77h-52l-34 55q-45 -29 -90 -45.5t-90 -16.5q-55 0 -100.5 21t-76 58t-43.5 86t-3 106q9 56 39 105.5t73 86t95.5 58t107.5 21.5q54 0 99 -21t75.5 -58t44 -86t4.5 -104zM560 260q8 49 -2.5 92.5t-36 76t-64.5 51.5t-87 19
q-47 0 -92.5 -19t-82.5 -51t-62.5 -74.5t-33.5 -90.5t3 -91t37 -75.5t65.5 -51t87.5 -18.5q36 0 74.5 15t73.5 40l-89 113l33 24l87 -115q36 36 58 73t30 82h1z" />
    <glyph glyph-name="R" unicode="R" horiz-adv-x="334" 
d="M276 0l-127 248h-22l-41 -248h-38l88 528h76q32 0 61.5 -4t52.5 -23q26 -20 33 -49.5t1 -64.5q-11 -66 -56 -101t-111 -37l127 -249h-44zM322 388q5 29 -3.5 54.5t-33.5 37.5q-19 11 -42.5 11.5t-45.5 0.5h-30l-35 -209h50q24 0 46.5 4t43.5 21q21 14 33 35.5t16 44.5h1z
" />
    <glyph glyph-name="S" unicode="S" horiz-adv-x="362" 
d="M363 147q-6 -33 -24.5 -61t-44.5 -49t-57.5 -32.5t-63.5 -11.5q-54 0 -88 31.5t-45 85.5l36 16q11 -46 35.5 -72t69.5 -26q25 0 49 9.5t43.5 26t33.5 38.5t19 48q3 22 -4.5 37.5t-20 27t-28.5 21t-31 18.5l-84 51q-50 32 -40 95q5 29 19 54t35 43t47.5 28t55.5 10
q39 0 70 -20t46 -56l-31 -22q-15 30 -37 46t-56 16q-20 0 -38.5 -7.5t-33.5 -21t-25.5 -31.5t-13.5 -38t3.5 -34.5t18 -25t26 -19t28.5 -16.5l88 -52q27 -20 38 -45t5 -62z" />
    <glyph glyph-name="T" unicode="T" horiz-adv-x="304" 
d="M253 492l-82 -492h-37l82 492h-134l6 36h304l-6 -36h-133z" />
    <glyph glyph-name="U" unicode="U" horiz-adv-x="440" 
d="M430 200q-2 -11 -4 -20.5t-4 -18.5q-6 -29 -17.5 -55t-34.5 -50q-31 -31 -72 -47t-80 -16t-74.5 16t-56.5 47q-11 16 -15.5 33t-4.5 35t3 37t6 39l55 328h38l-53 -318q-6 -36 -8.5 -70.5t13.5 -60.5q15 -24 44.5 -37.5t58.5 -13.5t64 13t58 38q23 26 32.5 60.5t15.5 70.5
l53 318h38z" />
    <glyph glyph-name="V" unicode="V" horiz-adv-x="378" 
d="M196 0h-16l-91 528h38l76 -441l224 441h38z" />
    <glyph glyph-name="W" unicode="W" horiz-adv-x="742" 
d="M573 0h-16l-110 463l-264 -463h-15l-79 528h38l66 -445l256 445h24l104 -445l214 445h38z" />
    <glyph glyph-name="X" unicode="X" horiz-adv-x="328" 
d="M286 0l-84 235l-160 -235h-42l187 269l-93 259h41l80 -221l151 221h42l-178 -259l97 -269h-41z" />
    <glyph glyph-name="Y" unicode="Y" horiz-adv-x="382" 
d="M248 225l-37 -225h-39l37 225l-121 303h42l105 -264l194 264h42z" />
    <glyph glyph-name="Z" unicode="Z" horiz-adv-x="383" 
d="M68 35h297l-5 -35h-337l6 36l372 456h-288l6 36h329l-6 -35z" />
    <glyph glyph-name="bracketleft" unicode="[" horiz-adv-x="196" 
d="M17 -115l113 676h121l-6 -38h-83l-100 -599h83l-7 -39h-121z" />
    <glyph glyph-name="backslash" unicode="\" horiz-adv-x="395" 
d="M332 0l-220 580h38l222 -580h-40z" />
    <glyph glyph-name="bracketright" unicode="]" horiz-adv-x="196" 
d="M17 -115l7 38h84l100 599h-84l6 39h121l-113 -676h-121z" />
    <glyph glyph-name="asciicircum" unicode="^" horiz-adv-x="412" 
d="M381 208l-94 282l-186 -282h-38l212 323h39l104 -322z" />
    <glyph glyph-name="underscore" unicode="_" horiz-adv-x="350" 
d="M-12 -80l6 33h347l-6 -33h-347z" />
    <glyph glyph-name="grave" unicode="`" horiz-adv-x="204" 
d="M194 382l-70 105l50 16l53 -107z" />
    <glyph glyph-name="a" unicode="a" horiz-adv-x="423" 
d="M342 0l11 71q-61 -78 -156 -78q-42 0 -73 15t-50 41t-26 61t-1 75q7 40 25.5 74.5t46.5 59.5t63.5 39.5t76.5 14.5q45 0 80 -19t52 -57l12 68h35l-61 -365h-35zM375 189q5 31 -0.5 59t-21.5 48.5t-41 32.5t-59 12q-32 0 -60.5 -13t-51.5 -35t-38.5 -50t-20.5 -58
q-5 -32 0.5 -60.5t20.5 -51t40 -35.5t59 -13q36 0 65.5 13t51 35.5t36 52.5t20.5 63z" />
    <glyph glyph-name="b" unicode="b" horiz-adv-x="421" 
d="M437 186q-7 -40 -26 -75t-47 -61.5t-64 -41.5t-78 -15t-78 19.5t-51 55.5v4l-12 -72h-35l99 596h35l-49 -297q29 39 70 57t86 18q40 0 71.5 -14.5t51 -39.5t27 -59.5t0.5 -74.5zM401 186q5 30 -1 58t-21 50t-39.5 35t-56.5 13q-36 0 -65.5 -12t-52 -33.5t-37 -50
t-20.5 -61.5q-5 -32 0.5 -61t20.5 -51t39.5 -34.5t59.5 -12.5q34 0 63.5 13t52 35.5t37.5 51t20 60.5z" />
    <glyph glyph-name="c" unicode="c" horiz-adv-x="340" 
d="M325 28q-29 -19 -59.5 -27t-62.5 -8q-41 0 -73.5 15t-53.5 40.5t-29.5 60.5t-1.5 75t27 74.5t50 60t67 40.5t78 15q65 0 110 -36l-19 -30q-41 33 -97 33q-33 0 -63.5 -13t-55 -34.5t-41 -50t-21.5 -59.5q-5 -32 2 -60.5t24 -50.5t43 -35t59 -13q56 0 108 34z" />
    <glyph glyph-name="d" unicode="d" horiz-adv-x="421" 
d="M340 0l11 71q-26 -39 -70 -58.5t-86 -19.5t-73 15t-50.5 41.5t-26 61.5t0.5 75t25 74.5t45.5 59.5t63 39.5t77.5 14.5q43 0 78 -18.5t53 -53.5l2 -3l49 297h35l-99 -596h-35zM373 190q6 31 0 59t-22 48.5t-41.5 32.5t-59.5 12q-32 0 -60.5 -13t-51 -35t-37.5 -50t-20 -58
q-5 -32 0 -60.5t20 -51t40 -35.5t59 -13q36 0 65.5 13t52 35.5t36.5 52.5t19 63z" />
    <glyph glyph-name="e" unicode="e" horiz-adv-x="386" 
d="M80 180q-12 -71 22.5 -113t99.5 -42q43 0 80 22.5t65 60.5l27 -17q-72 -98 -182 -98q-41 0 -71.5 15t-49.5 41.5t-25.5 61t-0.5 73.5q6 38 24.5 72.5t46.5 60.5t63.5 41t76.5 15q42 0 72 -15t48 -41.5t24.5 -61.5t0.5 -75h-321zM371 213q0 25 -8 48.5t-23.5 41t-38 28
t-50.5 10.5q-27 0 -54 -10t-49.5 -27.5t-39 -40.5t-23.5 -50h286z" />
    <glyph glyph-name="f" unicode="f" horiz-adv-x="155" 
d="M136 333l-55 -333h-35l55 333h-41l6 32h40l17 102q3 20 9.5 45.5t20.5 43.5q16 22 39.5 33t49.5 11q15 0 30 -5l-5 -32q-7 2 -13.5 3.5t-14.5 1.5q-24 0 -38.5 -10t-23 -25t-13 -33.5t-7.5 -35.5l-16 -99h93l-6 -32h-92z" />
    <glyph glyph-name="g" unicode="g" horiz-adv-x="427" 
d="M385 28q-7 -42 -19 -80.5t-44 -74.5q-32 -35 -72.5 -52.5t-85.5 -17.5q-36 0 -66 10t-51 30t-31.5 49t-7.5 67h35q-5 -58 30.5 -91t92.5 -33q35 0 69 13t59 42q27 32 38.5 67t17.5 72l7 38q-31 -37 -73.5 -56t-85.5 -19q-41 0 -71 15.5t-49 41.5t-26 61t-1 73
q7 39 26.5 74t48 60.5t64.5 40.5t76 15q45 0 77 -19.5t52 -55.5l12 67h35zM379 189q5 32 -1 59.5t-21.5 48t-41 32t-59.5 11.5q-32 0 -61 -13t-51.5 -35t-37.5 -49.5t-20 -57.5q-5 -32 0.5 -61t20.5 -51.5t40 -35.5t59 -13q36 0 65.5 13.5t51 36t36 52.5t20.5 63z" />
    <glyph glyph-name="h" unicode="h" horiz-adv-x="374" 
d="M329 0h-35l36 220q4 25 5 46.5t-6.5 38t-25 26t-49.5 9.5q-37 0 -62.5 -14.5t-41.5 -37.5t-25 -51.5t-13 -56.5l-30 -180h-34l99 597h34l-49 -295l4 4q48 66 127 66q37 0 60 -10.5t34 -30t12.5 -48t-4.5 -63.5z" />
    <glyph glyph-name="i" unicode="i" horiz-adv-x="151" 
d="M189 490q-2 -14 -13 -23t-25 -9t-21.5 9t-5.5 23q2 13 13 22.5t25 9.5t21.5 -9.5t5.5 -22.5zM57 0l61 365h35l-61 -365h-35z" />
    <glyph glyph-name="j" unicode="j" horiz-adv-x="151" 
d="M190 491q-2 -14 -13.5 -23t-25.5 -9t-21 9t-5 23q2 13 12.5 22.5t24.5 9.5t22 -9.5t6 -22.5zM21 -214l97 579h35l-97 -579h-35z" />
    <glyph glyph-name="k" unicode="k" horiz-adv-x="312" 
d="M279 0l-147 185l-23 -22l-27 -163h-35l99 597h35l-64 -384l172 153h47l-176 -158l165 -208h-46z" />
    <glyph glyph-name="l" unicode="l" horiz-adv-x="151" 
d="M58 0l100 598h35l-100 -598h-35z" />
    <glyph glyph-name="m" unicode="m" horiz-adv-x="562" 
d="M515 0h-36l37 227q4 22 5 43t-4.5 36.5t-20.5 25t-42 9.5q-30 0 -51 -12.5t-35.5 -32t-23 -44t-12.5 -48.5l-34 -204h-35l36 218q4 23 5 45t-5 39.5t-21 28t-43 10.5q-30 0 -51.5 -14.5t-35.5 -36t-22 -47.5t-12 -50l-32 -193h-35l61 366h35l-9 -50q30 33 56.5 45.5
t52.5 12.5q32 0 56 -16t39 -51q28 36 58.5 51.5t62.5 15.5q37 0 58 -11.5t30.5 -32t9.5 -48t-5 -59.5z" />
    <glyph glyph-name="n" unicode="n" horiz-adv-x="369" 
d="M287 0l36 220q5 28 6 50t-6 37.5t-24 23.5t-48 8q-34 0 -58.5 -14.5t-40.5 -37.5t-25.5 -51t-13.5 -56l-30 -180h-35l61 365h35l-10 -56q32 35 62.5 49.5t63.5 14.5q36 0 58.5 -10.5t33 -30.5t11.5 -48t-5 -64l-36 -220h-35z" />
    <glyph glyph-name="o" unicode="o" horiz-adv-x="407" 
d="M420 185q-7 -41 -27.5 -76t-50 -61t-66 -40.5t-76.5 -14.5q-39 0 -70 15t-52 41t-29.5 61t-2.5 74q7 39 27.5 74t50 61t65.5 41t75 15q40 0 72 -14.5t53 -40t29.5 -60.5t1.5 -75zM385 184q6 34 -1 62.5t-24.5 49.5t-43.5 33t-59 12q-32 0 -61 -12.5t-53 -34.5t-40 -50.5
t-21 -59.5q-5 -32 1.5 -60t23 -50t41 -34.5t56.5 -12.5t62.5 12t55.5 33.5t41.5 50t21.5 61.5z" />
    <glyph glyph-name="p" unicode="p" horiz-adv-x="411" 
d="M425 179q-6 -40 -24 -74.5t-45 -59.5t-62.5 -39.5t-75.5 -14.5q-38 0 -71 16t-56 58l-46 -280h-36l97 580h35l-12 -67q38 40 77 57.5t75 17.5q41 0 71.5 -15.5t48.5 -42t24.5 -61.5t-0.5 -75zM389 178q5 31 0 60.5t-19.5 52t-38 36t-55.5 13.5q-35 0 -63.5 -13.5
t-50 -36.5t-35.5 -53t-19 -62q-6 -32 -0.5 -59.5t21 -47.5t40 -31.5t56.5 -11.5q31 0 58.5 12.5t49.5 33.5t36.5 49t19.5 58z" />
    <glyph glyph-name="q" unicode="q" horiz-adv-x="412" 
d="M295 -214l46 278q-37 -38 -75.5 -54.5t-75.5 -16.5q-41 0 -71 14t-49 39t-25.5 59t-0.5 74q7 40 25.5 76t46 62t63 41.5t76.5 15.5q36 0 69.5 -17t56.5 -56l11 65h35l-97 -580h-35zM362 179q6 31 1 60.5t-19.5 52t-38.5 36t-56 13.5q-34 0 -62.5 -13.5t-50 -36.5
t-36 -52.5t-20.5 -62.5q-5 -32 1 -59.5t21 -47.5t39.5 -31.5t56.5 -11.5q31 0 58.5 12.5t49.5 33.5t36.5 49t19.5 58z" />
    <glyph glyph-name="r" unicode="r" horiz-adv-x="196" 
d="M236 333q-17 6 -26 6q-29 0 -46.5 -16.5t-28 -40.5t-15.5 -50.5t-8 -45.5l-32 -187h-35l62 366h35l-9 -50q2 4 4.5 8t5.5 8q14 20 33.5 31t45.5 11q18 0 39 -7z" />
    <glyph glyph-name="s" unicode="s" horiz-adv-x="269" 
d="M267 106q-4 -26 -16.5 -47t-31 -36t-41 -23t-46.5 -8q-45 0 -73.5 24.5t-33.5 72.5l35 12q8 -35 25.5 -55t52.5 -20q16 0 32 6t28.5 17t21 25.5t11.5 32.5q3 17 -1 28.5t-12 19.5t-20 13.5t-24 10.5q-17 7 -34.5 15t-30.5 19.5t-20 27.5t-3 39q4 21 15 38t26 29.5
t33.5 19t38.5 6.5q26 0 49 -14.5t33 -42.5l-32 -17q-8 21 -23 30.5t-34 9.5q-22 0 -43.5 -16t-25.5 -39q-4 -26 10.5 -39t34.5 -21q13 -6 30 -12q15 -6 29 -14t24.5 -20t15 -29.5t0.5 -42.5z" />
    <glyph glyph-name="t" unicode="t" horiz-adv-x="156" 
d="M138 332l-55 -332h-36l55 332h-39l6 33h39l22 132h36l-22 -132h64l-6 -33h-64z" />
    <glyph glyph-name="u" unicode="u" horiz-adv-x="358" 
d="M340 147q-6 -36 -17 -65t-30 -49t-47.5 -30.5t-68.5 -10.5t-64.5 10.5t-37 31t-14 49t4.5 64.5l37 218h35l-37 -218q-5 -28 -4.5 -50.5t9 -38t27 -24t50.5 -8.5t53.5 8.5t35 24t21 38t12.5 50.5l37 218h35z" />
    <glyph glyph-name="v" unicode="v" horiz-adv-x="323" 
d="M171 0h-16l-95 365h37l78 -299l174 299h37z" />
    <glyph glyph-name="w" unicode="w" horiz-adv-x="569" 
d="M420 0h-17l-69 296l-165 -296h-16l-92 365h37l74 -298l167 298h16l68 -298l172 298h35z" />
    <glyph glyph-name="x" unicode="x" horiz-adv-x="328" 
d="M288 -1l-98 168l-155 -168h-40l177 195l-104 172h41l91 -148l137 148h45l-162 -172l111 -195h-43z" />
    <glyph glyph-name="y" unicode="y" horiz-adv-x="356" 
d="M84 -214h-37l119 206l-108 373h37l98 -330l191 330h36z" />
    <glyph glyph-name="z" unicode="z" horiz-adv-x="347" 
d="M20 0l5 32l312 300h-252l6 33h297l-6 -32l-310 -300h260l-5 -33h-307z" />
    <glyph glyph-name="braceleft" unicode="{" horiz-adv-x="196" 
d="M155 -115q-32 2 -50.5 9t-27.5 21t-9.5 35.5t4.5 51.5l20 123q5 29 -5.5 47t-30.5 36l6 32q26 18 41.5 34.5t20.5 45.5l21 123q5 30 13 51.5t22 36t35 21.5t53 9l-6 -37q-28 -1 -48.5 -10.5t-26.5 -43.5l-22 -131q-4 -26 -10.5 -44t-15 -31t-19.5 -22.5t-24 -18.5
q10 -8 17.5 -18t11.5 -23.5t4 -32.5t-4 -45l-22 -129q-6 -35 12 -44t46 -9z" />
    <glyph glyph-name="bar" unicode="|" horiz-adv-x="209" 
d="M86 0l96 577h37l-96 -577h-37z" />
    <glyph glyph-name="braceright" unicode="}" horiz-adv-x="196" 
d="M208 208q-26 -18 -42 -36t-21 -47l-20 -123q-5 -30 -13 -51.5t-22 -35.5t-35.5 -21t-53.5 -9l6 36q28 0 48.5 9.5t26.5 44.5l22 129q8 52 26.5 78t43.5 41q-11 9 -18.5 18.5t-11.5 22.5t-4 31t4 44l22 131q3 17 -0.5 27.5t-11.5 16.5t-20 8t-26 2l6 37q31 -2 50 -9
t28 -21t10 -35.5t-4 -52.5l-21 -123q-5 -29 6 -45.5t31 -34.5z" />
    <glyph glyph-name="asciitilde" unicode="~" horiz-adv-x="412" 
d="M418 207q-26 -32 -54 -56t-62 -24q-18 0 -34.5 8.5t-33 18.5t-34 18.5t-37.5 8.5q-22 0 -39 -14t-37 -38l-33 18q12 13 25 26.5t27 24t30 17.5t34 7q13 0 28 -4.5t29.5 -11.5t28 -14.5t24.5 -13.5q8 -4 16 -6.5t14 -2.5q20 0 38 15t36 42z" />
    <glyph glyph-name="uni00A0" unicode="&#xa0;" horiz-adv-x="250" 
 />
    <glyph glyph-name="cent" unicode="&#xa2;" horiz-adv-x="455" 
d="M384 146q-24 -18 -51 -29.5t-54 -13.5l-7 -40h-32l7 41q-28 4 -50 17.5t-35.5 34.5t-19 48t-0.5 58q5 30 19.5 57t35.5 48t47.5 34.5t55.5 17.5l6 41h32l-6 -40q51 -3 86 -38l-22 -29q-32 31 -70 34l-42 -251q20 2 41.5 11t45.5 28zM294 386q-22 -4 -41.5 -15.5
t-35.5 -28t-26.5 -37.5t-14.5 -43t0 -43t14.5 -38t26 -28.5t35.5 -15.5z" />
    <glyph glyph-name="sterling" unicode="&#xa3;" horiz-adv-x="390" 
d="M387 361q4 28 -2 53t-20 43t-35 28.5t-47 10.5t-49 -10.5t-41 -28.5t-30.5 -42t-17.5 -52l-16 -95h106l-5 -33h-106l-34 -202l259 1l-5 -34h-329l5 33h34l34 202h-34l5 33h34l16 95q6 36 22 67t40 54.5t54 37t64 13.5t61.5 -13.5t46 -37t26 -55t1.5 -68.5h-37z" />
    <glyph glyph-name="yen" unicode="&#xa5;" horiz-adv-x="385" 
d="M323 326h92l-5 -31h-109l-52 -70h149l-5 -31h-149l-32 -194h-39l32 193h-147l5 32h147l-28 70h-107l5 31h90l-81 202h42l105 -264l194 264h42z" />
    <glyph glyph-name="copyright" unicode="&#xa9;" horiz-adv-x="560" 
d="M424 146q-26 -20 -56.5 -32t-59.5 -12q-33 0 -59 12.5t-43 34t-23.5 51t-0.5 62.5t22.5 62t40.5 50.5t54 34t63 12.5q57 0 96 -39l-24 -27q-36 33 -79 33q-25 0 -48 -10.5t-42 -27.5t-32 -40t-17 -48t1.5 -48t18 -40.5t32.5 -28t44 -10.5q23 0 46.5 9t49.5 29zM598 265
q-9 -57 -39 -107t-73.5 -87.5t-97 -59t-109.5 -21.5q-57 0 -103.5 21.5t-77 59t-44 87.5t-4.5 107q9 56 39 106t74 87t98 58.5t110 21.5t102 -21.5t76.5 -58.5t44 -87t4.5 -106zM561 265q8 49 -3.5 92t-38 75t-66.5 50.5t-89 18.5q-50 0 -96.5 -18.5t-84 -50.5t-63 -75
t-33.5 -92q-8 -50 3.5 -93.5t38 -75.5t66.5 -50.5t90 -18.5q49 0 95 18.5t83.5 50.5t63 75.5t33.5 93.5h1z" />
    <glyph glyph-name="guillemotleft" unicode="&#xab;" horiz-adv-x="262" 
d="M178 224l65 -99l-25 -23l-82 122l122 122l19 -23zM136 102l-82 122l122 122l20 -23l-99 -99l65 -99z" />
    <glyph glyph-name="registered" unicode="&#xae;" horiz-adv-x="592" 
d="M613 265q-9 -57 -39 -107t-73.5 -87.5t-97 -59t-109.5 -21.5q-57 0 -103.5 21.5t-77 59t-44 87.5t-4.5 107q9 56 39 106t74 87t98 58.5t110 21.5t102 -21.5t76.5 -58.5t44 -87t4.5 -106zM576 265q8 49 -3.5 92t-38 75t-66.5 50.5t-89 18.5q-50 0 -96.5 -18.5t-84 -50.5
t-63 -75t-33.5 -92q-8 -50 3.5 -93.5t38 -75.5t66.5 -50.5t90 -18.5q49 0 95 18.5t83.5 50.5t63 75.5t33.5 93.5h1zM487 326q-8 -40 -37.5 -59t-67.5 -21q17 -33 33.5 -67.5t33.5 -67.5h-46l-62 135h-67l-23 -135h-38l50 296h131q59 0 79 -21.5t13 -58.5zM451 327
q2 14 -3.5 22.5t-16 13t-24.5 6t-28 1.5h-86l-14 -88h57h14h28t28 4q17 4 29 13.5t15 28.5z" />
    <glyph glyph-name="guillemotright" unicode="&#xbb;" horiz-adv-x="262" 
d="M160 102l-19 23l100 99l-66 99l25 23l81 -122zM79 102l-19 23l99 99l-65 99l25 23l81 -122z" />
    <glyph glyph-name="onequarter" unicode="&#xbc;" horiz-adv-x="572" 
d="M502 51l-8 -51h-38l8 51h-147l3 15l206 238h18l-36 -216h35l-6 -37h-35zM136 0h-47l459 527h46zM150 229l44 262h-52l6 36h90l-50 -298h-38zM491 212l-107 -124h86z" />
    <glyph glyph-name="onehalf" unicode="&#xbd;" horiz-adv-x="572" 
d="M571 211q-3 -17 -10.5 -30.5t-18.5 -26.5q-10 -12 -21.5 -22.5t-22.5 -21.5l-79 -74h122l-6 -36h-178l5 32q29 26 63.5 58t63.5 59q13 13 26.5 29.5t16.5 33.5q4 23 -10 38.5t-37 15.5t-42.5 -16.5t-24.5 -49.5h-39q10 52 43 77.5t69 25.5q39 0 62.5 -26.5t17.5 -65.5z
M116 0h-47l459 528h46zM150 229l44 263h-52l6 36h90l-50 -299h-38z" />
    <glyph glyph-name="threequarters" unicode="&#xbe;" horiz-adv-x="572" 
d="M156 0h-47l459 528h46zM502 51l-8 -51h-38l8 51h-147l3 15l207 240h18l-37 -218h35l-6 -37h-35zM289 318q-3 -20 -13 -36.5t-25 -29t-33.5 -19.5t-37.5 -7q-35 0 -57.5 23.5t-14.5 68.5h37q-2 -56 41 -56q22 0 41 16.5t23 38.5q8 49 -56 50l6 36q60 5 68 49q3 19 -8 31.5
t-29 12.5q-20 0 -33.5 -12t-20.5 -41h-39q23 90 99 90q35 0 55.5 -23.5t14.5 -58.5q-6 -38 -44 -64q32 -26 26 -69zM491 213l-107 -125h86z" />
    <glyph glyph-name="multiply" unicode="&#xd7;" horiz-adv-x="380" 
d="M320 41l-103 124l-145 -124l-20 25l144 124l-103 124l29 25l103 -124l145 124l21 -25l-145 -124l104 -124z" />
    <glyph glyph-name="divide" unicode="&#xf7;" horiz-adv-x="380" 
d="M274 296q-2 -14 -14.5 -24.5t-26.5 -10.5t-22.5 10.5t-6.5 24.5t14.5 24.5t26.5 10.5t22.5 -10.5t6.5 -24.5zM55 172l6 36h326l-6 -36h-326zM239 84q-3 -14 -15 -24.5t-26 -10.5t-23 10.5t-6 24.5q2 14 14 24.5t26 10.5t23 -10.5t7 -24.5z" />
    <glyph glyph-name="kokaithai" unicode="&#xe01;" horiz-adv-x="455" 
d="M412 0h-35l43 262q6 36 -2 65.5t-27 50.5t-48 32.5t-65 11.5q-45 0 -86.5 -23t-70.5 -56l31 -41l-51 -302h-35l48 291l-35 50q18 24 41 45t49.5 36.5t55.5 24.5t59 9q45 0 80 -14.5t57.5 -40t31.5 -61.5t2 -78z" />
    <glyph glyph-name="khokhaithai" unicode="&#xe02;" horiz-adv-x="390" 
d="M369 133q-5 -29 -20.5 -54.5t-38 -44.5t-50 -30t-56.5 -11t-53 11t-40 30t-23 44.5t-2 54.5q4 26 13.5 45t22 32.5t27 23.5t29.5 18t28.5 15.5t25 17.5t19.5 23t11 32q3 17 -1 32.5t-14 27t-24 18t-32 6.5q-25 0 -47.5 -13t-37.5 -36l-25 19q21 29 51.5 46t64.5 17
q25 0 45 -9t33.5 -25t19 -37.5t1.5 -45.5t-13 -41.5t-21 -29.5t-26.5 -21t-29.5 -17q-14 -8 -27.5 -16t-25.5 -19q-11 -11 -19.5 -26t-12.5 -37t1.5 -41t17.5 -33.5t30 -23t40 -8.5t43 8.5t37.5 23t28 33.5t15.5 41l53 317h35z" />
    <glyph glyph-name="khokhuatthai" unicode="&#xe03;" horiz-adv-x="390" 
d="M369 133q-5 -29 -20.5 -54.5t-38 -44.5t-50 -30t-56.5 -11t-53 11t-40 30t-23 44.5t-2 54.5q4 26 13.5 45t22 32.5t27 23.5t29.5 18t28.5 15.5t25 17.5t19.5 23t11 32q8 49 -28 72l-68 -54l-76 77l25 20l57 -56l66 51q32 -14 48.5 -43.5t9.5 -66.5q-4 -24 -13 -41
t-21 -29t-26.5 -21t-29.5 -17q-13 -8 -27 -16t-26 -20q-11 -11 -19.5 -26t-12.5 -37t1.5 -41t17.5 -33.5t30 -23t40 -8.5t43 8.5t37.5 23t28 33.5t15.5 41l53 317h35z" />
    <glyph glyph-name="khokhwaithai" unicode="&#xe04;" horiz-adv-x="440" 
d="M397 0h-35l46 279q5 29 -2 55t-23 45t-40 30t-53 11q-30 0 -57.5 -11t-50 -30t-38 -45t-20.5 -55l-6 -35h143l-5 -34h-143l-35 -210h-35l46 279q6 36 25.5 68t47.5 56t62.5 38t71.5 14t66.5 -14t49.5 -38t28.5 -56t2.5 -68z" />
    <glyph glyph-name="khokhonthai" unicode="&#xe05;" horiz-adv-x="463" 
d="M420 0h-35l48 291q7 40 -6 72.5t-42 53.5l-98 -78l-70 78q-35 -21 -59.5 -54t-31.5 -73l-8 -45h155l-5 -35h-155l-35 -210h-35l48 291q10 57 46 101t90 67l69 -73l93 73q45 -23 67 -67t12 -101z" />
    <glyph glyph-name="khorakhangthai" unicode="&#xe06;" horiz-adv-x="445" 
d="M429 166q-6 -36 -25 -68t-47 -55.5t-62.5 -37t-71.5 -13.5q-42 0 -75 18.5t-55 51.5l-11 -63h-35l31 181q8 52 29.5 78.5t44.5 41.5q10 6 20.5 12.5t19.5 14t15.5 17t9.5 22.5q4 31 -17 50l-57 -45l-66 66l22 23l49 -48l58 43q25 -11 38 -35t8 -53q-4 -25 -14.5 -40.5
t-24 -26t-29.5 -19t-30 -21t-25 -31.5t-16 -49l-3 -13q-5 -29 2 -55t23.5 -45t40.5 -30t53 -11t56.5 11t50 30t38 45t20.5 55l48 283h35z" />
    <glyph glyph-name="ngonguthai" unicode="&#xe07;" horiz-adv-x="371" 
d="M343 92q-3 -20 -13.5 -38t-26.5 -31t-35 -20.5t-39 -7.5q-29 0 -50.5 14.5t-28.5 39.5l-81 274l35 13l80 -274q5 -15 18.5 -24t30.5 -9q26 0 48 18.5t27 44.5l54 323h-66l6 35h100z" />
    <glyph glyph-name="chochanthai" unicode="&#xe08;" horiz-adv-x="405" 
d="M409 285q-2 -16 -7 -30t-12 -27l-121 -228h-49l-52 290h37l45 -257l107 205q14 23 17 47q5 28 -1.5 52.5t-22 43t-38.5 29t-51 10.5t-54.5 -10.5t-48 -28.5t-36.5 -43t-20 -53h-36q7 36 26 67t46 54t60.5 36t68.5 13q36 0 64.5 -13.5t48 -36.5t27.5 -54t2 -66z" />
    <glyph glyph-name="chochingthai" unicode="&#xe09;" horiz-adv-x="417" 
d="M374 1h-35l9 57q-30 -30 -67 -47.5t-75 -17.5q-34 0 -62 12.5t-47 34.5t-27 51.5t-2 64.5l11 66h-34l6 35h69l-17 -101q-5 -27 1.5 -50.5t21.5 -41t37 -27.5t49 -10t52.5 10t46 27t35 41t19.5 51l21 130q5 28 -1.5 52.5t-22 43t-39 29t-51.5 10.5q-43 0 -81 -24t-61 -63
h-37q13 27 33 49.5t44 38.5t51.5 25t56.5 9q36 0 65 -13.5t48.5 -36.5t27.5 -54t2 -66z" />
    <glyph glyph-name="chochangthai" unicode="&#xe0a;" horiz-adv-x="390" 
d="M378 369q24 -37 16 -87l-25 -149q-5 -29 -20.5 -54.5t-38 -44.5t-50 -30t-56.5 -11t-53 11t-39.5 30t-22.5 44.5t-2 54.5q4 26 13 45t22 33t27.5 23.5t28.5 17.5q15 8 29 15.5t25 17.5t19 23t11 32q3 17 -1 32.5t-14 27t-24 18t-32 6.5q-25 0 -47.5 -13t-37.5 -36l-24 20
q20 29 50.5 46t64.5 17q25 0 45 -9.5t33.5 -25.5t19 -37.5t1.5 -45.5t-13 -41t-21 -29t-26 -21t-29 -17q-34 -18 -56.5 -38.5t-28.5 -60.5q-8 -45 17.5 -75t70.5 -30q22 0 43 8t37.5 22.5t28 33.5t15.5 41l25 148q8 54 -29 88l126 117l23 -22z" />
    <glyph glyph-name="sosothai" unicode="&#xe0b;" horiz-adv-x="390" 
d="M378 369q11 -18 16 -40t1 -47l-26 -149q-5 -29 -20.5 -54.5t-38 -44.5t-50 -30t-56.5 -11t-53 11t-40 30t-23 44.5t-2 54.5q4 27 13.5 46t22 33t27 24t29.5 19t29 17t25.5 18t19.5 23t11 32q8 49 -28 72l-70 -57l-74 75l24 21l56 -55l68 54q32 -14 48.5 -43t9.5 -67
q-4 -24 -13 -41t-21 -30t-26 -22t-29 -17q-35 -20 -57.5 -41t-29.5 -61q-4 -22 1 -41t17.5 -33.5t30.5 -22.5t40 -8t43 8.5t37.5 22.5t28 33.5t15.5 41.5l25 148q8 53 -29 87l126 117l23 -22z" />
    <glyph glyph-name="chochoethai" unicode="&#xe0c;" horiz-adv-x="742" 
d="M724 152q-7 -39 -24 -69t-41 -50t-53.5 -30t-61.5 -10q-38 0 -70 25.5t-49 60.5l-13 -79h-35q5 34 10 64.5t10 58.5q4 24 7.5 47t6.5 42t5.5 32.5t3.5 17.5q6 36 -2 65.5t-27 50.5t-48 32.5t-65 11.5q-45 0 -86.5 -23t-70.5 -56l30 -41l-45 -268l69 1l-5 -35h-104l48 291
l-35 50q18 24 41 45t49.5 36.5t55.5 24.5t59 9q45 0 80 -14.5t57.5 -40t31.5 -61.5t2 -78l-12 -72q-6 -35 2 -65t24.5 -52t38 -34t42.5 -12q51 0 89 32t49 93l50 299h36z" />
    <glyph glyph-name="yoyingthai" unicode="&#xe0d;" horiz-adv-x="741" 
d="M698 2q-6 -34 -24 -63.5t-44 -52t-58.5 -35.5t-67.5 -13q-48 0 -83 24t-50 66l35 17q12 -33 39 -52.5t65 -19.5q28 0 53.5 10t46 27.5t34.5 41t19 50.5l9 53q-26 -28 -62 -45t-74 -17q-33 0 -60.5 12.5t-46 34.5t-26 50.5t-1.5 61.5l18 110q6 36 -2 65.5t-27 50.5
t-48 32.5t-65 11.5q-45 0 -86.5 -23t-70.5 -56l30 -40l-45 -268h69l-5 -35h-104l48 292l-35 50q17 24 40 45t50 36t56 24t59 9q45 0 80 -14.5t57.5 -40t31.5 -61.5t2 -78l-18 -110q-4 -26 2 -48.5t20 -39t35 -26.5t47 -10t50.5 9t44.5 25.5t33.5 39.5t18.5 50l50 298h35
l-49 -293z" />
    <glyph glyph-name="dochadathai" unicode="&#xe0e;" horiz-adv-x="465" 
d="M296 -168q-53 47 -128 47q-79 0 -144 -47l-17 26q38 26 79.5 40.5t86.5 14.5q37 0 69 -10t58 -27l77 65l53 321q6 36 -2 65.5t-27 50.5t-48 32.5t-65 11.5q-45 0 -86.5 -23t-70.5 -56l30 -41l-50 -302h-81l5 35h46l43 257l-35 50q17 24 40 45t50 36t56 24t59 9
q45 0 80 -14.5t57.5 -40t31.5 -61.5t2 -78l-56 -335z" />
    <glyph glyph-name="topatakthai" unicode="&#xe0f;" horiz-adv-x="465" 
d="M296 -170l-63 76l-88 -75l-90 108l28 23l70 -84l89 75l63 -76l71 61l54 323q6 36 -2 65.5t-27 50.5t-48 32.5t-65 11.5q-45 0 -86.5 -22.5t-70.5 -55.5l30 -41l-50 -302h-81l5 35h46l43 256l-35 50q18 24 41 45t49.5 36.5t55.5 24.5t59 9q45 0 80 -14.5t57.5 -40.5
t31.5 -62t2 -78l-56 -334z" />
    <glyph glyph-name="thothanthai" unicode="&#xe10;" horiz-adv-x="405" 
d="M384 399q17 -23 24 -52t1 -62q-4 -28 -20 -58l-121 -228h-49l-51 291h37l45 -257l107 205q13 22 17 47q5 28 -1.5 52.5t-22 43t-38.5 29t-51 10.5t-54.5 -10.5t-48 -28.5t-36.5 -43t-20 -53h-36q7 36 26 67t46 54t60.5 36t68.5 13q28 0 51.5 -8.5t41.5 -22.5l66 62
l24 -24zM283 -174l-60 74l-89 -76l-82 99l25 21l63 -76l89 76l61 -72l19 15l10 65h35l-12 -76z" />
    <glyph glyph-name="thonangmonthothai" unicode="&#xe11;" horiz-adv-x="445" 
d="M402 0h-35l55 330q5 35 -10.5 60.5t-41.5 26.5l-288 -417h-35l33 198q8 52 30 81.5t46 47.5q9 6 19 13t19 14.5t16 16.5t9 20q3 18 -15 26l-62 -49l-66 66l23 23l49 -48l57 43q26 -7 38 -23.5t8 -38.5q-4 -21 -14 -34t-23.5 -23.5t-28.5 -20.5t-28.5 -24.5t-24.5 -36
t-16 -53.5l-22 -127l265 381q57 -1 81.5 -35.5t15.5 -88.5z" />
    <glyph glyph-name="thophuthaothai" unicode="&#xe12;" horiz-adv-x="752" 
d="M734 152q-7 -39 -24 -69t-41 -50t-53.5 -30t-61.5 -10q-38 0 -70.5 26t-48.5 64l-13 -83h-35q17 104 27 163.5t15 89.5q3 17 5 29t3 17q6 40 -8 69.5t-43 46.5l-90 -66l-69 68q-45 -21 -81 -71t-49 -128q-6 -37 -3 -71t16 -60.5t35.5 -42t54.5 -15.5t57 22l21 -25
q-18 -14 -39.5 -23t-44.5 -9q-41 0 -69.5 17t-45 47t-21 71t3.5 89q8 50 25.5 89.5t41.5 69t52.5 49.5t58.5 31l63 -63l86 63q45 -18 69 -57t14 -99q-3 -17 -6 -36q-3 -17 -6 -37.5t-7 -42.5q-5 -33 3 -62t24 -50.5t37.5 -33.5t42.5 -12q51 0 89 32t49 93l50 299h36z" />
    <glyph glyph-name="nonenthai" unicode="&#xe13;" horiz-adv-x="742" 
d="M663 0l12 75q-26 -36 -67 -59t-80 -23q-32 0 -58.5 10t-43.5 30t-24 50t0 69l18 110q6 36 -2 65.5t-27 50.5t-48 32.5t-65 11.5q-45 0 -86.5 -23t-70.5 -56l30 -41l-45 -268h68l-5 -34h-103l48 291l-35 50q18 24 41 45t49.5 36.5t55.5 24.5t59 9q45 0 80 -14.5t57.5 -40
t31.5 -61.5t2 -78l-18 -110q-5 -31 0.5 -54.5t18.5 -39t33 -23.5t45 -8q22 0 48 12t48.5 32.5t39.5 47.5t22 56l46 275h36l-75 -450h-36z" />
    <glyph glyph-name="dodekthai" unicode="&#xe14;" horiz-adv-x="457" 
d="M379 0l47 285q6 33 -2.5 58.5t-26.5 43t-44 26.5t-54 9q-30 0 -62 -12.5t-59.5 -38t-48.5 -64.5t-30 -93q-6 -37 -2.5 -70.5t16.5 -58.5t36 -40t55 -15q17 0 30.5 6t25.5 16l21 -24q-18 -14 -39 -23.5t-44 -9.5q-40 0 -69 16.5t-46 45.5t-22 69t3 88q11 64 36.5 110
t60 75.5t74 43t77.5 13.5q34 0 64 -11.5t51 -33.5t31 -53t4 -71l-48 -287h-35z" />
    <glyph glyph-name="totaothai" unicode="&#xe15;" horiz-adv-x="468" 
d="M390 2l49 296q7 40 -7.5 69.5t-42.5 46.5l-90 -66l-69 68q-45 -23 -81 -73t-49 -126q-6 -38 -2.5 -71.5t16 -59t35 -40.5t55.5 -15q17 0 30 6t27 17l19 -25q-17 -14 -38 -23t-44 -9q-41 0 -70 16.5t-46 45.5t-21.5 69.5t3.5 88.5q8 49 25.5 88.5t41.5 69.5t52.5 50
t58.5 31l64 -63l86 63q45 -18 69 -57t14 -99l-50 -298h-35z" />
    <glyph glyph-name="thothungthai" unicode="&#xe16;" horiz-adv-x="455" 
d="M412 0h-35l43 262q6 36 -2 65.5t-27 50.5t-48 32.5t-65 11.5q-45 0 -86.5 -23t-70.5 -56l30 -41l-45 -268l69 1l-5 -35h-104l48 291l-35 50q18 24 41 45t49.5 36.5t55.5 24.5t59 9q45 0 80 -14.5t57.5 -40t31.5 -61.5t2 -78z" />
    <glyph glyph-name="thothahanthai" unicode="&#xe17;" horiz-adv-x="440" 
d="M397 0h-35l50 299q5 30 -2 53t-22 39t-36.5 24t-45.5 8q-29 0 -59 -12t-56 -32.5t-44.5 -48.5t-23.5 -61l-45 -269h-35l75 450h35l-14 -83q37 48 84 69.5t90 21.5q31 0 58.5 -10t46 -30t27 -50t2.5 -69z" />
    <glyph glyph-name="thothongthai" unicode="&#xe18;" horiz-adv-x="404" 
d="M399 147q-6 -35 -24 -63t-44.5 -48t-59 -31t-67.5 -11t-64 11t-49 31t-28.5 48t-2.5 63l15 92h35l-15 -91q-8 -57 25 -88t90 -31q28 0 54 8t46.5 23.5t34.5 37.5t19 49q6 37 -10 58t-43 32.5t-59 17t-58 10.5q-17 3 -37 9t-37 16t-27 25.5t-6 37.5q4 24 22 43.5t43.5 34
t56.5 22t61 7.5q29 0 55.5 -6t48.5 -19t37 -33.5t21 -48.5l-34 -12q-5 24 -19 40t-33.5 26t-41.5 14.5t-43 4.5q-23 0 -46.5 -6t-43 -16t-33 -22.5t-15.5 -25.5q-3 -20 12 -32.5t37.5 -20t46 -11t37.5 -5.5q30 -6 58.5 -15t49 -24.5t31 -40t4.5 -60.5z" />
    <glyph glyph-name="nonuthai" unicode="&#xe19;" horiz-adv-x="441" 
d="M362 0l13 83q-36 -48 -82.5 -69t-91.5 -21q-31 0 -58 10t-46 30t-27.5 50t-1.5 69l50 298h35l-50 -298q-5 -30 1.5 -53.5t21.5 -39.5t36.5 -24t45.5 -8q29 0 59 11.5t56 32t44.5 48.5t24.5 62l45 269h35l-75 -450h-35z" />
    <glyph glyph-name="bobaimaithai" unicode="&#xe1a;" horiz-adv-x="440" 
d="M425 170q-6 -36 -25 -68t-47 -56t-62.5 -37.5t-71.5 -13.5t-67 13.5t-50 37.5t-28.5 56t-2.5 68l47 280h35l-47 -280q-5 -29 2 -55t23 -45t40 -30t53 -11q30 0 57.5 11t50 30t38 45t20.5 55l47 280h35z" />
    <glyph glyph-name="poplathai" unicode="&#xe1b;" horiz-adv-x="441" 
d="M425 170q-6 -36 -25 -68t-47 -56t-62.5 -37.5t-71.5 -13.5t-67 13.5t-50 37.5t-28.5 56t-2.5 68l47 280h35l-47 -280q-5 -29 2 -54.5t23.5 -44.5t40.5 -30t53 -11q30 0 57.5 11t50 30t37.5 44.5t20 54.5l73 434h35z" />
    <glyph glyph-name="phophungthai" unicode="&#xe1c;" horiz-adv-x="501" 
d="M475 107q-4 -23 -16 -43t-29.5 -35t-39.5 -24t-45 -9q-30 0 -53 14t-34 37q-19 -23 -46 -37t-57 -14q-23 0 -42.5 9t-32 24t-18.5 35t-2 43l29 173q6 36 25.5 68t48 55.5t63.5 37.5t73 14l-6 -35q-30 0 -58.5 -11t-51.5 -30t-38.5 -44.5t-20.5 -54.5l-29 -173
q-5 -32 14.5 -54.5t51.5 -22.5q33 0 58 22.5t31 54.5l31 184h35l-31 -184q-5 -32 14.5 -54.5t51.5 -22.5q33 0 58 22.5t31 54.5l58 343h35z" />
    <glyph glyph-name="fofathai" unicode="&#xe1d;" horiz-adv-x="501" 
d="M475 107q-4 -23 -16 -43t-29.5 -35t-39.5 -24t-45 -9q-30 0 -53 14.5t-34 37.5q-20 -23 -47 -37.5t-56 -14.5q-24 0 -43 9t-32 24t-18.5 35t-1.5 43l29 173q6 36 25.5 68t48 56t63.5 37.5t73 13.5l-6 -35q-30 0 -58.5 -11t-51.5 -30t-38.5 -44.5t-20.5 -54.5l-29 -173
q-5 -32 14 -54t51 -22t58 22t32 54l31 184h35l-31 -184q-5 -32 14 -54t51 -22t58 22t32 54l83 496h35z" />
    <glyph glyph-name="phophanthai" unicode="&#xe1e;" horiz-adv-x="521" 
d="M497 112q-4 -24 -17 -45t-31.5 -37t-41.5 -25t-47 -9q-32 0 -55.5 15t-35.5 40q-20 -25 -48.5 -40t-60.5 -15q-24 0 -44 9t-33.5 25t-19.5 37t-2 45l57 338h35l-57 -338q-5 -34 15 -58t55 -24t62.5 24t32.5 59l57 337h35l-57 -338q-5 -34 15 -58t55 -24t62 24t33 58
l57 338h36z" />
    <glyph glyph-name="fofanthai" unicode="&#xe1f;" horiz-adv-x="521" 
d="M496 112q-4 -24 -16.5 -45t-31 -37t-41.5 -25t-47 -9q-32 0 -56 15t-35 40q-20 -25 -48.5 -40t-60.5 -15q-24 0 -44 9t-33.5 25t-19.5 37t-2 45l57 338h35l-57 -338q-5 -34 15 -58t54 -24q18 0 34 6.5t28.5 17.5t21.5 26.5t12 32.5l57 337h35l-57 -338q-5 -34 15 -58
t54 -24q18 0 34 6.5t28.5 17.5t21.5 26t12 32l83 492h35z" />
    <glyph glyph-name="phosamphaothai" unicode="&#xe20;" horiz-adv-x="465" 
d="M387 0l43 262q6 36 -2 65.5t-27 50.5t-48 32.5t-65 11.5q-45 0 -86.5 -23t-70.5 -56l30 -41l-50 -302h-81l5 35h46l43 256l-35 50q18 24 41 45t49.5 36.5t55.5 24.5t59 9q45 0 80 -14.5t57.5 -40.5t31.5 -62t2 -78l-43 -261h-35z" />
    <glyph glyph-name="momathai" unicode="&#xe21;" horiz-adv-x="440" 
d="M422 152q-7 -39 -25.5 -69t-44 -50t-56 -30t-61.5 -10q-43 0 -82.5 21t-61.5 69l-13 -83h-35l75 450h35l-45 -269q-6 -33 3 -61t28.5 -48.5t45.5 -32.5t55 -12q24 0 48 8t44.5 24t35 39.5t19.5 53.5l50 298h35z" />
    <glyph glyph-name="yoyakthai" unicode="&#xe22;" horiz-adv-x="436" 
d="M421 172q-6 -37 -25.5 -69.5t-48 -56.5t-64 -38t-72.5 -14q-35 0 -64.5 12.5t-49.5 34.5t-30 52t-7 65l93 79l-37 43q-11 14 -16.5 32.5t-1.5 40.5q3 21 14.5 40t28 33t37 22t41.5 8q43 0 68 -31l-30 -25q-17 21 -45 21q-29 0 -52 -19.5t-28 -48.5q-3 -15 1.5 -28
t13.5 -23l56 -66l-107 -91q1 -50 34 -83.5t87 -33.5q30 0 58 11.5t51 31t38.5 45.5t20.5 56l47 278h36z" />
    <glyph glyph-name="roruathai" unicode="&#xe23;" horiz-adv-x="391" 
d="M384 145q-6 -37 -25 -65.5t-45.5 -48t-57.5 -29.5t-62 -10q-29 0 -56 9t-47.5 27t-31.5 44.5t-8 61.5l36 12q-5 -60 28 -89.5t84 -29.5q25 0 50 8t45.5 23t35 37t19.5 50q3 21 -2.5 35t-17 24t-27 16t-31.5 10q-12 3 -25 6t-26 5q-26 5 -50 11t-42 16.5t-27.5 27
t-5.5 42.5q5 30 21.5 52.5t40 38t51.5 23.5t56 8q27 0 52.5 -6.5t46.5 -19.5t35 -33t18 -48l-37 -13q-7 45 -39 65.5t-80 20.5q-22 0 -43.5 -5.5t-39.5 -16.5t-30.5 -27t-16.5 -37q-2 -17 5 -27.5t24 -18.5t39 -12.5t42 -8.5q28 -5 56.5 -12.5t50 -21t32.5 -36t5 -58.5z" />
    <glyph glyph-name="ruthai" unicode="&#xe24;" horiz-adv-x="455" 
d="M383 -171h-35l72 432q6 36 -2 65.5t-27 50.5t-48 32.5t-65 11.5q-45 0 -86.5 -22.5t-70.5 -55.5l30 -41l-45 -267h69l-5 -35h-104l48 291l-35 50q18 24 41 45t49.5 36.5t55.5 24.5t59 9q45 0 80 -14.5t57.5 -40.5t31.5 -61.5t2 -78.5z" />
    <glyph glyph-name="lolingthai" unicode="&#xe25;" horiz-adv-x="434" 
d="M356 0l21 128q5 33 -3 57t-25 40.5t-41 24.5t-51 8q-26 0 -52.5 -8t-49 -24.5t-38.5 -41t-21 -56.5q-5 -33 5 -61t34 -47l-29 -25q-28 24 -40 57.5t-5 75.5q6 38 26 68.5t48 52t61.5 33t66.5 11.5q39 0 73.5 -15t57.5 -50l10 64q6 32 -2.5 56t-26.5 40.5t-42.5 24.5
t-51.5 8q-26 0 -52.5 -8t-49 -24.5t-39 -41t-22.5 -57.5h-36q8 42 28.5 73t49 51.5t61.5 30.5t66 10q32 0 62.5 -10.5t53 -30.5t33 -51t3.5 -71l-48 -292h-35z" />
    <glyph glyph-name="luthai" unicode="&#xe26;" horiz-adv-x="465" 
d="M358 -171l72 433q6 36 -2 65.5t-27 50.5t-48 32.5t-65 11.5q-45 0 -86.5 -23t-70.5 -56l30 -41l-50 -302h-81l5 35h46l43 257l-35 50q17 24 40 45t50 36t56 24t59 9q45 0 80 -14.5t57.5 -40.5t31.5 -61.5t2 -78.5l-72 -432h-35z" />
    <glyph glyph-name="wowaenthai" unicode="&#xe27;" horiz-adv-x="416" 
d="M418 225q-9 -52 -34 -95t-59.5 -73.5t-75 -47.5t-82 -18t-79.5 16t-67 54l28 25q38 -47 90.5 -56.5t102.5 11.5t89.5 68.5t51.5 115.5q11 67 -12.5 115t-67 69t-99 11.5t-108.5 -56.5l-19 25q41 37 85 53.5t85 16t76 -17.5t59 -47.5t34.5 -73t1.5 -95.5z" />
    <glyph glyph-name="sosalathai" unicode="&#xe28;" horiz-adv-x="440" 
d="M417 401q17 -24 24.5 -54.5t2.5 -65.5l-47 -281h-35l47 281q5 29 -1.5 55t-23 45t-40.5 30t-54 11q-29 0 -56.5 -11t-50 -30t-38 -45t-20.5 -55l-7 -36h144l-5 -34h-144l-35 -211h-35l47 281q6 36 25 68t47 56t62.5 38t71.5 14q29 0 53 -8.5t44 -23.5l64 61l25 -24z" />
    <glyph glyph-name="sorusithai" unicode="&#xe29;" horiz-adv-x="441" 
d="M438 249l-13 -79q-6 -36 -25 -68t-47 -56t-62.5 -37.5t-71.5 -13.5t-67 13.5t-50 37.5t-28.5 56t-2.5 68l47 280h35l-47 -280q-5 -29 2 -55t23 -45t40 -30t53 -11t56.5 11t50 30t38.5 45t21 55l13 79h-76q-25 0 -38 16.5t-9 39.5l4 26h32l-4 -25q-2 -9 4 -16t15 -7h78
l28 167h35l-28 -167h44l-6 -34h-44z" />
    <glyph glyph-name="sosuathai" unicode="&#xe2a;" horiz-adv-x="434" 
d="M417 400q15 -20 21.5 -47t0.5 -61l-48 -292h-36l21 128q5 33 -3 57t-25 40.5t-40.5 24.5t-50.5 8q-26 0 -52.5 -8t-49 -24.5t-38.5 -41t-21 -56.5q-10 -66 38 -108l-29 -25q-27 24 -39.5 57.5t-5.5 75.5q6 38 26 68.5t48.5 52t62 33t66.5 11.5q38 0 72.5 -15t57.5 -50
l10 64q6 32 -2.5 56t-26.5 40.5t-42.5 24.5t-50.5 8t-53 -8t-49.5 -24.5t-39 -41t-22.5 -57.5h-35q7 42 27.5 73t49 51.5t62 30.5t66.5 10q29 0 57.5 -7.5t48.5 -23.5l65 61l25 -24z" />
    <glyph glyph-name="hohipthai" unicode="&#xe2b;" horiz-adv-x="452" 
d="M409 0h-35l38 230q6 41 -17 68t-64 27q-32 0 -57 -16l-162 -104l-34 -205h-35l75 450h35l-35 -206l333 215l16 -26l-119 -77q52 -6 79.5 -42t18.5 -87z" />
    <glyph glyph-name="lochulathai" unicode="&#xe2c;" horiz-adv-x="521" 
d="M560 492q-5 -29 -16 -45.5t-33 -23.5q20 -15 24 -35t-1 -49l-38 -226q-4 -24 -16.5 -45.5t-31 -37.5t-41.5 -25t-47 -9q-32 0 -56 15t-35 40q-20 -25 -48.5 -40t-60.5 -15q-24 0 -44 9t-33.5 25t-19.5 37.5t-2 45.5l57 337h35l-57 -337q-5 -35 15 -58.5t54 -23.5
q18 0 34 6.5t28.5 17.5t21.5 26t12 32l35 206h35l-35 -206q-5 -35 15 -58.5t54 -23.5q35 0 63 23.5t33 58.5l38 224q7 40 -9 59t-46 19h-41l5 30h44q42 0 56 10.5t18 37.5l1 4h34z" />
    <glyph glyph-name="oangthai" unicode="&#xe2d;" horiz-adv-x="492" 
d="M498 226q-8 -48 -30.5 -90.5t-56 -75t-76 -51t-90.5 -18.5q-47 0 -83.5 18.5t-60 50t-32.5 74.5t-1 92q1 4 2 8.5t2 9.5h217l-5 -34h-180q-5 -38 3 -71t27 -58.5t48.5 -40t68.5 -14.5t74 15.5t63 42.5t47 63.5t26 78.5t0.5 78.5t-25 64t-48.5 43t-70 15.5
q-61 0 -112.5 -35.5t-79.5 -93.5l-30 14q16 33 40 60.5t53.5 47.5t63.5 31t71 11q49 0 85.5 -19t59 -51.5t30 -75t-0.5 -90.5z" />
    <glyph glyph-name="honokhukthai" unicode="&#xe2e;" horiz-adv-x="492" 
d="M498 225q-8 -48 -30.5 -90.5t-56 -74.5t-75.5 -50.5t-90 -18.5t-84.5 18.5t-60 50t-32 74t-0.5 91.5q1 4 1.5 8.5t2.5 9.5h217l-6 -34h-181q-5 -38 3.5 -71t28 -58.5t49 -40t67.5 -14.5q40 0 75.5 16t63 43t46.5 63.5t26 78.5q7 41 0.5 77.5t-25 63.5t-49 42.5
t-70.5 15.5q-63 0 -113 -35.5t-79 -92.5l-31 13q35 66 94.5 108t134.5 42q68 0 112 -36l73 70l25 -25l-73 -70q26 -32 36 -77.5t1 -96.5z" />
    <glyph glyph-name="paiyannoithai" unicode="&#xe2f;" horiz-adv-x="415" 
d="M336 0l58 349q-26 -27 -61 -43t-73 -16q-33 0 -60 12.5t-45 34t-25.5 51t-1.5 62.5h34q-5 -26 1 -49t20.5 -40t35.5 -27t47 -10t50 10t43.5 27t33 40t18.5 49h36l-75 -450h-36z" />
    <glyph glyph-name="saraathai" unicode="&#xe30;" horiz-adv-x="207" 
d="M152 301q-24 0 -38.5 17.5t-9.5 40.5l3 22h35l-3 -22q-2 -10 3.5 -16.5t14.5 -6.5h68l-6 -34zM111 57q-24 0 -38 17.5t-10 40.5l3 22h35l-3 -22q-2 -10 3.5 -16.5t14.5 -6.5h68l-6 -35h-67z" />
    <glyph glyph-name="maihanakatthai" unicode="&#xe31;" 
d="M-131 520q-24 0 -38 17t-10 40l5 28h35l-5 -27q-2 -10 3.5 -16.5t14.5 -6.5h207l-5 -35h-207z" />
    <glyph glyph-name="saraaathai" unicode="&#xe32;" horiz-adv-x="322" 
d="M279 0h-35l48 287q10 63 -15 99.5t-88 36.5q-60 0 -97 -34l-20 24q23 20 54 31.5t70 11.5q41 0 69 -12.5t44 -34t20.5 -50.5t-1.5 -61z" />
    <glyph glyph-name="saraamthai" unicode="&#xe33;" horiz-adv-x="322" 
d="M95 565q-4 -24 -25 -41t-44 -17t-37.5 17t-10.5 41q4 23 24 41t44 18t38.5 -18t10.5 -41zM279 0h-35l48 287q10 63 -15 99.5t-88 36.5q-60 0 -97 -34l-20 24q23 20 54 31.5t70 11.5q41 0 69 -12.5t44 -34t20.5 -50.5t-1.5 -61zM62 565q2 11 -4.5 18.5t-17.5 7.5t-20 -7.5
t-11 -18.5t5 -19t18 -8t19.5 8t10.5 19z" />
    <glyph glyph-name="saraithai" unicode="&#xe34;" 
d="M-310 520l6 35h353l-5 -35h-354z" />
    <glyph glyph-name="saraiithai" unicode="&#xe35;" 
d="M-310 520l6 34h318l11 66h35l-16 -100h-354z" />
    <glyph glyph-name="sarauethai" unicode="&#xe36;" 
d="M57 577q-4 -23 -23.5 -40t-42.5 -17h-303l5 35h249q-1 5 -1.5 10.5t0.5 11.5q4 24 24.5 41.5t43.5 17.5t37.5 -17.5t10.5 -41.5zM25 577q2 11 -4.5 19t-17.5 8q-10 0 -19.5 -8t-11.5 -19t5 -18.5t18 -7.5q10 0 19 7.5t11 18.5z" />
    <glyph glyph-name="saraueethai" unicode="&#xe37;" 
d="M-310 520l6 34h246l11 66h35l-11 -66h37l11 66h35l-16 -100h-354z" />
    <glyph glyph-name="sarauthai" unicode="&#xe38;" 
d="M-103 -160l13 80h-41l6 36h55q8 0 13.5 -6.5t4.5 -14.5l-16 -95h-35z" />
    <glyph glyph-name="sarauuthai" unicode="&#xe39;" 
d="M-57 -95q-5 -30 -30.5 -51.5t-55.5 -21.5t-47 21.5t-12 51.5l2 15h-31l6 36h65l-8 -51q-3 -16 6 -27t25 -11t28.5 11.5t15.5 26.5l8 51h36z" />
    <glyph glyph-name="phinthuthai" unicode="&#xe3a;" 
d="M-41 -67q-2 -12 -12.5 -21t-22.5 -9t-19.5 9t-5.5 21t12.5 21t22.5 9t19.5 -9t5.5 -21z" />
    <glyph glyph-name="PUCR2005" unicode="&#xe3e;" 
 />
    <glyph glyph-name="bahtthai" unicode="&#xe3f;" horiz-adv-x="385" 
d="M386 148q-10 -66 -66 -110q-32 -24 -62 -31t-65 -7l-15 -84h-36l15 84h-99l88 528h98l13 79h36l-13 -80q59 -7 84 -46t16 -94q-5 -34 -22.5 -59.5t-50.5 -45.5q45 -15 66 -50.5t13 -83.5zM343 392q7 41 -12.5 66.5t-57.5 31.5l-33 -198q43 7 68.5 32.5t34.5 67.5z
M239 492h-7h-55l-34 -202h55h6zM348 147q5 29 -4 54t-32 37q-16 8 -36 11.5t-42 4.5l-37 -219q22 0 44 4t44 17q25 16 41.5 39t21.5 52zM199 255h-62l-37 -220h61z" />
    <glyph glyph-name="saraethai" unicode="&#xe40;" horiz-adv-x="141" 
d="M53 0l75 450h35l-75 -450h-35z" />
    <glyph glyph-name="saraaethai" unicode="&#xe41;" horiz-adv-x="256" 
d="M168 0l75 450h35l-75 -450h-35zM53 0l75 450h35l-75 -450h-35z" />
    <glyph glyph-name="saraothai" unicode="&#xe42;" horiz-adv-x="184" 
d="M172 616q-15 0 -26 -5.5t-13 -15.5q-1 -5 2.5 -10t8.5 -9.5t10.5 -8t9.5 -6.5q13 -10 22.5 -26t4.5 -45l-81 -490h-35l82 491q3 21 -7 32.5t-22.5 21t-22.5 20t-7 30.5q5 28 30.5 41.5t54.5 13.5h126l-5 -34h-132z" />
    <glyph glyph-name="saraaimaimuanthai" unicode="&#xe43;" horiz-adv-x="184" 
d="M268 558q-4 -21 -15 -38.5t-27 -31.5l-42 -36l-75 -452h-35l77 466l54 45q24 19 28 47q5 26 -11 44.5t-42 18.5q-27 0 -48.5 -19t-26.5 -47h-35q4 21 15 39.5t26 32t34 21t40 7.5q42 0 66 -27.5t17 -69.5z" />
    <glyph glyph-name="saraaimaimalaithai" unicode="&#xe44;" horiz-adv-x="184" 
d="M284 595q-3 -18 -18 -31q-10 -9 -21.5 -15.5t-22 -14t-19 -17.5t-11.5 -26l-82 -491h-36l81 490q5 29 20 45t31 26q5 3 12 6.5t13.5 7.5t11.5 9t6 11q2 10 -7 15.5t-24 5.5h-132l5 34h126q14 0 27 -3.5t22.5 -10t14.5 -17t3 -24.5z" />
    <glyph glyph-name="lakkhangyaothai" unicode="&#xe45;" horiz-adv-x="322" 
d="M250 -171h-35l77 459q10 63 -15 99.5t-88 36.5q-56 0 -97 -35l-20 24q23 20 54 31.5t70 11.5q41 0 69 -12.5t44 -34t20.5 -50.5t-1.5 -61z" />
    <glyph glyph-name="maiyamokthai" unicode="&#xe46;" horiz-adv-x="463" 
d="M325 -171l78 467q7 38 -7.5 70t-44.5 50l-77 -66l-55 65q-36 -17 -60.5 -49t-31.5 -71q-9 -56 24 -98l-28 -24q-20 25 -28.5 56t-2.5 66q9 55 47.5 98.5t92.5 62.5l50 -60l70 60q48 -19 72 -62t15 -98l-78 -467h-36z" />
    <glyph glyph-name="maitaikhuthai" unicode="&#xe47;" 
d="M-172 645q-20 0 -35.5 -13.5t-18.5 -33.5q-4 -20 7.5 -33.5t30.5 -13.5q20 0 35.5 14t19.5 36h31q-4 -22 8 -36t31 -14q20 0 35.5 14t19.5 36h32q-6 -34 -32.5 -58t-59.5 -24q-20 0 -34.5 8.5t-22.5 22.5q-13 -14 -31 -22.5t-37 -8.5q-33 0 -52 23.5t-13 55.5t32.5 55.5
t59.5 23.5h236l-6 -32h-236z" />
    <glyph glyph-name="maiekthai" unicode="&#xe48;" 
d="M32 660l16 95h35l-16 -95h-35z" />
    <glyph glyph-name="maithothai" unicode="&#xe49;" 
d="M-93 660q10 11 18 19.5t16 16.5q15 17 17 25t-1 15t-16 7q-16 0 -26 -15l-23 18q10 13 24.5 20.5t29.5 7.5q29 0 40 -16.5t7 -34.5q-1 -8 -5.5 -15.5t-11.5 -14.5h129l-5 -33h-193z" />
    <glyph glyph-name="maitrithai" unicode="&#xe4a;" 
d="M8 660l21 31q6 6 6 13q2 11 -4 18t-17 7q-10 0 -18 -7.5t-10 -20.5h-32q2 13 -4.5 20.5t-16.5 7.5q-24 0 -29 -25q-1 -11 10 -22l-27 -24q-21 19 -16 46q5 24 24.5 41t43.5 17q23 0 38 -17q20 17 43 17q24 0 38.5 -17t9.5 -41q0 -5 -3 -11h67l-5 -33h-119z" />
    <glyph glyph-name="maichattawathai" unicode="&#xe4b;" 
d="M75 702l-7 -42h-35l7 42h-42l4 29h42l7 42h35l-7 -42h43l-5 -29h-42z" />
    <glyph glyph-name="thanthakhatthai" unicode="&#xe4c;" 
d="M52 700q-9 0 -16 -7t-9 -16t6 -18l-28 -24q-17 21 -12 42q4 23 22.5 39.5t41.5 16.5h56l-5 -33h-56z" />
    <glyph glyph-name="nikhahitthai" unicode="&#xe4d;" 
d="M95 565q-4 -24 -25 -41t-44 -17t-37.5 17t-10.5 41q4 23 24 41t44 18t38.5 -18t10.5 -41zM62 565q2 11 -4.5 18.5t-17.5 7.5t-20 -7.5t-11 -18.5t5 -19t18 -8t19.5 8t10.5 19z" />
    <glyph glyph-name="yamakkanthai" unicode="&#xe4e;" 
d="M57 699q-10 13 -28 13q-19 0 -34 -13t-18 -32t8.5 -32t31.5 -13l-6 -31q-20 0 -35.5 -13t-18.5 -32t8 -32t32 -13l-5 -32q-34 0 -52.5 22.5t-13.5 54.5q3 19 14 34.5t26 25.5q-26 23 -20 61q3 16 11 30t20 24t27 16t30 6q33 0 49 -22z" />
    <glyph glyph-name="fongmanthai" unicode="&#xe4f;" horiz-adv-x="512" 
d="M498 202q-7 -44 -30 -82t-56.5 -66.5t-74.5 -45t-84 -16.5t-78.5 16.5t-59.5 45t-34 66.5t-3 82q7 43 30 81.5t56.5 67t74.5 45t84 16.5t78.5 -16.5t59.5 -45t34 -67t3 -81.5zM461 201q6 36 -2.5 67.5t-28 55t-48.5 37.5t-65 14t-69.5 -13.5t-61 -37t-46.5 -55t-25 -67.5
t2.5 -67.5t28 -55t48.5 -37t65 -13.5t69.5 13.5t60.5 37t46 55t25 67.5zM395 202q-4 -22 -15.5 -41.5t-28.5 -34t-38 -23t-43 -8.5t-40 8.5t-30.5 23t-17.5 34t-1 41.5t15.5 41.5t28.5 34t37.5 23t43.5 8.5q22 0 40 -8.5t30.5 -23t17.5 -34t1 -41.5zM359 202q5 30 -12 50.5
t-47 20.5t-54 -20.5t-29 -50.5t12 -50.5t47 -20.5t54 20.5t29 50.5z" />
    <glyph glyph-name="zerothai" unicode="&#xe50;" horiz-adv-x="452" 
d="M452 188q-7 -40 -28 -75.5t-52 -61.5t-69 -41.5t-78 -15.5t-73 15.5t-55 41.5t-31 61.5t-2 75.5t28 75.5t51.5 61.5t68 41.5t78.5 15.5q40 0 73 -15.5t55 -41.5t31.5 -61.5t2.5 -75.5zM417 188q6 33 -1.5 62t-25.5 50.5t-45 34t-60 12.5t-64 -12.5t-56 -34t-42.5 -50.5
t-23.5 -62t1.5 -62t25.5 -50.5t45 -34t60 -12.5t64 12.5t56 34t42.5 50.5t23.5 62z" />
    <glyph glyph-name="onethai" unicode="&#xe51;" horiz-adv-x="452" 
d="M447 188q-7 -40 -28 -75.5t-52 -61.5t-69 -41.5t-78 -15.5q-42 0 -74.5 15.5t-55.5 43.5l30 25q19 -23 45.5 -36t59.5 -13t64 12.5t56.5 34t43 50.5t23.5 62t-2 62t-26 50.5t-45 34t-59 12.5q-51 0 -93.5 -25t-65.5 -62q-11 -18 -8.5 -36t25.5 -18h53l-6 -35h-55
q-24 0 -36.5 10t-16 26t1.5 35t16 36q15 22 35.5 41.5t45 33t52 21.5t56.5 8q40 0 73.5 -15.5t55.5 -41.5t31.5 -61.5t2.5 -75.5z" />
    <glyph glyph-name="twothai" unicode="&#xe52;" horiz-adv-x="520" 
d="M507 209q-8 -50 -30 -89.5t-54.5 -67.5t-74 -43t-88.5 -15q-49 0 -85 16t-58.5 44t-31 66.5t-1.5 82.5l44 262h35l-43 -261q-6 -37 0 -69t24.5 -55.5t49 -37t72.5 -13.5q40 0 74.5 12.5t61.5 36t45 56.5t25 74q3 16 7 40t3 46t-10.5 37.5t-33.5 15.5q-22 0 -41 -15
t-25 -36q0 -2 -1.5 -11t-2.5 -12h-34q1 3 2.5 12t1.5 11q2 21 -11.5 36t-36.5 15q-26 0 -44.5 -18.5t-21.5 -41.5q-3 -14 2 -27.5t20 -22.5l-30 -26q-19 15 -25 35t-2 41q3 18 12 35t22.5 30.5t31.5 21.5t40 8q23 0 41 -10.5t27 -27.5q16 17 36.5 27.5t43.5 10.5
q35 0 51 -18t20 -44.5t0.5 -56.5t-7.5 -54z" />
    <glyph glyph-name="threethai" unicode="&#xe53;" horiz-adv-x="519" 
d="M518 195q-6 -35 -20.5 -66t-36 -57.5t-50 -47t-61.5 -32.5l-11 32q57 20 96 65.5t49 105.5q8 49 -10.5 88.5t-55.5 59.5l-112 -96l-83 99q-54 -23 -85.5 -68t-39.5 -94q-5 -30 -1 -58t16.5 -49.5t34.5 -35t52 -14.5q17 0 33 10l8 -32q-25 -11 -46 -11q-39 1 -66.5 17.5
t-44 43t-21.5 60t1 69.5q5 31 18 62.5t35 58.5t51.5 48.5t67.5 33.5l78 -93l106 90q54 -23 81.5 -73t16.5 -116z" />
    <glyph glyph-name="fourthai" unicode="&#xe54;" horiz-adv-x="465" 
d="M494 365q-8 -8 -19 -13.5t-25 -5.5h-165q-33 0 -64 -12.5t-56 -34t-42 -50.5t-23 -62t1.5 -62t25.5 -50.5t45 -34t60 -12.5q29 0 58.5 10t55.5 27l-72 87q-13 15 -9 36t21 36l23 20l22 -24l-25 -21q-12 -12 -4 -22l139 -165l-30 -25l-44 53q-32 -22 -68 -34.5t-73 -12.5
q-40 0 -73 15.5t-55 41.5t-31 61.5t-2 75.5t28 75.5t51.5 61.5t68 41.5t78.5 15.5h162q13 0 20 10l60 65l26 -19z" />
    <glyph glyph-name="fivethai" unicode="&#xe55;" horiz-adv-x="465" 
d="M494 366q-8 -8 -18.5 -13.5t-24.5 -5.5h-165q-34 0 -65 -12.5t-56 -34t-42.5 -50.5t-23.5 -62t2 -62t26 -51t45 -34.5t60 -12.5q29 0 59 10t56 28l-73 87q-13 14 -9 35t21 36l23 21l22 -25l-25 -21q-11 -11 -4 -21l139 -165l-30 -25l-44 53q-32 -23 -68 -35.5t-73 -12.5
q-40 0 -73 15.5t-55 41.5t-31 61.5t-2 75.5q6 37 23.5 69.5t43.5 57.5t58.5 42t68.5 24q-6 13 -3 33q5 30 29 50t53 20t47.5 -19.5t13.5 -50.5q-3 -17 -14 -31h68q13 0 20 10l60 65l26 -19zM365 413q2 16 -7 27t-25 11q-15 0 -28 -11t-15 -27q-3 -16 6 -27t24 -11
q16 0 29 11t16 27z" />
    <glyph glyph-name="sixthai" unicode="&#xe56;" horiz-adv-x="435" 
d="M438 192q-7 -41 -28 -76.5t-52 -62.5t-69 -42.5t-78 -15.5q-51 0 -87 23.5t-55 57.5q-12 23 -9 47.5t26 44.5l41 36l20 -25l-40 -35q-11 -9 -12.5 -22t4.5 -24q15 -29 46.5 -48.5t71.5 -19.5q33 0 64 13t56.5 35t42.5 51t22 62q9 51 -11.5 91t-60.5 58l-102 -87l-120 144
l29 25l100 -120l91 78q29 -9 52 -27t37.5 -43t20 -55t0.5 -63z" />
    <glyph glyph-name="seventhai" unicode="&#xe57;" horiz-adv-x="525" 
d="M518 195q-12 -69 -56.5 -124t-111.5 -79l-11 31q28 10 52.5 27t43 39.5t31.5 49.5t18 56q8 46 -9 86t-57 62l-112 -96l-83 99q-54 -23 -85.5 -68t-39.5 -94q-5 -30 -1 -58t16.5 -49.5t34.5 -35t52 -14.5q17 0 33 10l8 -32q-25 -11 -46 -11q-39 1 -66.5 17.5t-44 43
t-21.5 60t1 69.5q5 31 18 62.5t35 58.5t51.5 48.5t67.5 33.5l78 -93l106 90q58 -26 83 -76l26 156h34z" />
    <glyph glyph-name="eightthai" unicode="&#xe58;" horiz-adv-x="528" 
d="M534 366q-8 -8 -18.5 -13.5t-24.5 -5.5h-199q-35 0 -67.5 -13t-59 -35.5t-44.5 -53t-24 -64.5q-8 -51 11.5 -91t61.5 -60l115 99l84 -101q39 4 70 32.5t38 68.5q7 42 -17.5 71t-69.5 29l6 36q29 0 52.5 -10.5t39.5 -29t22.5 -43.5t1.5 -53q-5 -29 -19.5 -53.5t-36.5 -43
t-48.5 -29t-55.5 -10.5l-75 90l-108 -93q-29 10 -51.5 28.5t-36.5 43.5t-19.5 55.5t0.5 63.5q7 42 29 78.5t53.5 63.5t70.5 43t81 16h197q13 0 20 10l60 65l26 -19z" />
    <glyph glyph-name="ninethai" unicode="&#xe59;" horiz-adv-x="536" 
d="M607 439q-4 -6 -9 -12t-10 -14q-8 -9 -17.5 -20.5t-20 -21.5t-22 -17t-24.5 -8q-15 -1 -29.5 0t-30.5 -2q-6 -1 -14.5 -6.5t-17.5 -13t-18.5 -16t-17.5 -16.5l131 -280l-32 -18l-152 329q-6 12 -19.5 18t-27.5 6q-28 0 -57 -12.5t-53.5 -34.5t-42 -50.5t-23.5 -61.5
t1.5 -62t25.5 -51t45 -34.5t60 -12.5q30 0 67 14l10 -31q-42 -18 -83 -18q-40 0 -73 15.5t-55 41.5t-31 61.5t-2 75.5t28 76t51 62t65.5 41.5t71.5 15.5q19 0 40.5 -9t27.5 -23l13 -29q19 18 40.5 35.5t40.5 19.5q17 3 29 3h32q8 0 19 8.5t22 20.5t21 25t17 22z" />
    <glyph glyph-name="angkhankhuthai" unicode="&#xe5a;" horiz-adv-x="520" 
d="M441 0l75 450h36l-75 -450h-36zM326 0l58 349q-26 -27 -61 -43t-73 -16q-33 0 -60 12.5t-45 34t-25.5 51t-1.5 62.5h34q-5 -26 1 -49t20.5 -40t35.5 -27t47 -10t50 10t43.5 27t33 40t18.5 49h35l-75 -450h-35z" />
    <glyph glyph-name="khomutthai" unicode="&#xe5b;" horiz-adv-x="1006" 
d="M798 212q-3 -5 -10 -14.5t-15 -20.5t-16.5 -22t-15.5 -20q-5 11 -12 27t-15 33t-16 33t-15 27q-6 -12 -19.5 -31.5t-29 -41t-31.5 -42t-27 -33.5q-5 15 -13.5 35.5t-18 41.5t-20 41t-19.5 34q-14 -45 -37.5 -83t-55 -65t-68.5 -42.5t-78 -15.5q-99 0 -141 48.5t-28 128.5
q7 41 25 71.5t42 51t51.5 30.5t53.5 10q48 0 76.5 -29.5t16.5 -87.5l-32 -3q7 40 -14.5 62.5t-54.5 22.5q-19 0 -39.5 -8t-38.5 -24t-31 -40t-18 -56q-6 -39 2.5 -66t28 -44.5t47 -25.5t59.5 -8q40 0 78.5 21.5t67.5 55t44.5 74.5t9.5 81l30 19q10 -12 23 -33t25 -44.5
t23 -47t18 -40.5q9 11 19.5 26t20 30.5t18.5 29.5t15 24l34 20q5 -8 12.5 -22t15.5 -29.5t15 -30.5t12 -27q11 13 21.5 28.5t16.5 26.5h193l-6 -36h-179z" />
    <glyph glyph-name="ZWSP" unicode="&#x200b;" 
 />
    <glyph glyph-name="endash" unicode="&#x2013;" horiz-adv-x="380" 
d="M56 160l5 30h320l-5 -30h-320z" />
    <glyph glyph-name="emdash" unicode="&#x2014;" horiz-adv-x="760" 
d="M56 160l5 30h700l-5 -30h-700z" />
    <glyph glyph-name="quoteleft" unicode="&#x2018;" horiz-adv-x="188" 
d="M226 569q-26 -14 -42 -31t-29 -40q14 5 22 5q14 0 23.5 -11t6.5 -26q-2 -15 -16 -27.5t-31 -12.5q-23 0 -32.5 16.5t-5.5 36.5q4 25 27.5 54t63.5 52z" />
    <glyph glyph-name="quoteright" unicode="&#x2019;" horiz-adv-x="188" 
d="M219 532q-5 -25 -28.5 -54t-63.5 -52l-13 16q27 14 43 31.5t30 40.5q-8 -4 -13 -5t-10 -1q-14 0 -24 11t-7 26q2 15 16 27.5t31 12.5q23 0 32.5 -16.5t6.5 -36.5z" />
    <glyph glyph-name="quotedblleft" unicode="&#x201c;" horiz-adv-x="292" 
d="M346 569q-26 -14 -42 -31t-29 -40q14 5 22 5q14 0 23.5 -11t6.5 -26q-2 -15 -16 -27.5t-31 -12.5q-23 0 -32.5 16.5t-5.5 36.5q4 25 27.5 54t63.5 52zM226 569q-26 -14 -42 -31t-29 -40q14 5 22 5q14 0 23.5 -11t6.5 -26q-2 -15 -16 -27.5t-31 -12.5q-23 0 -32.5 16.5
t-5.5 36.5q4 25 27.5 54t63.5 52z" />
    <glyph glyph-name="quotedblright" unicode="&#x201d;" horiz-adv-x="308" 
d="M339 532q-5 -25 -28.5 -54t-63.5 -52l-13 16q27 14 43 31.5t30 40.5q-8 -4 -13 -5t-10 -1q-14 0 -24 11t-7 26q2 15 16 27.5t31 12.5q23 0 32.5 -16.5t6.5 -36.5zM219 532q-5 -25 -28.5 -54t-63.5 -52l-13 16q27 14 43 31.5t30 40.5q-8 -4 -13 -5t-10 -1q-14 0 -24 11
t-7 26q2 15 16 27.5t31 12.5q23 0 32 -16.5t6 -36.5h1z" />
    <glyph glyph-name="bullet" unicode="&#x2022;" horiz-adv-x="360" 
d="M371 200q-6 -33 -23 -61.5t-42 -50t-55.5 -34t-63.5 -12.5q-32 0 -59 12.5t-45 34t-26 50t-2 61.5t23 61.5t42 50t55.5 34t63.5 12.5q32 0 59 -12.5t45 -34t26 -50t2 -61.5z" />
    <glyph glyph-name="Euro" unicode="&#x20ac;" horiz-adv-x="556" 
d="M535 61q-45 -32 -92 -50t-95 -18q-45 0 -84.5 15t-69 42t-48.5 63.5t-24 79.5h-69l5 31h62q0 14 5 39q2 17 6 32h-61l5 31h67q18 45 49 83.5t71 66t85.5 43.5t92.5 16q48 0 89.5 -18.5t71.5 -51.5l-27 -31q-30 32 -67 48.5t-75 16.5q-39 0 -77 -13.5t-71 -36.5
t-59.5 -54.5t-42.5 -68.5h218l-5 -31h-225q-6 -17 -9 -35q-2 -9 -2 -18v-17h224l-5 -31h-217q6 -35 22.5 -65t42 -52.5t57.5 -35.5t70 -13q35 0 78.5 16t85.5 48z" />
    <glyph glyph-name="uni25CC" unicode="&#x25cc;" horiz-adv-x="670" 
d="M288 179l-50 -15l25 47q10 -18 25 -32zM381 413l30 45l15 -44q-5 1 -10.5 1h-10.5q-6 0 -12 -0.5t-12 -1.5zM381 156l-27 -42l-14 42q5 -1 10.5 -1.5t10.5 -0.5t10 0.5t10 1.5zM516 307l38 -22l-45 -19q2 5 3 9.5t2 9.5t1.5 11t0.5 11zM252 264l-41 23l48 22
q-5 -12 -6 -24q-1 -5 -1.5 -10.5t0.5 -10.5zM291 363l-5 46l42 -16q-20 -11 -37 -30zM474 205l5 -41l-39 13q19 12 34 28zM475 393l52 16l-25 -47q-10 17 -27 31z" />
    <glyph glyph-name="thothannobasethai" horiz-adv-x="420" 
d="M389 399q17 -23 24 -52t1 -62q-4 -28 -20 -58l-121 -228h-49l-51 291h37l45 -257l107 205q13 22 17 47q5 28 -1.5 52.5t-22 43t-38.5 29t-51 10.5t-54.5 -10.5t-48 -28.5t-36.5 -43t-20 -53h-36q7 36 26 67t46 54t60.5 36t68.5 13q28 0 51.5 -8.5t41.5 -22.5l66 62
l24 -24z" />
    <glyph glyph-name="saraileftthai" 
d="M-336 519l6 36h295l-5 -35z" />
    <glyph glyph-name="saraiileftthai" 
d="M-336 519l6 35h260l10 56h35l-15 -90z" />
    <glyph glyph-name="saraueleftthai" 
d="M-3 577q-4 -23 -24 -40t-43 -17h-265l5 35h210q-1 5 -1.5 10.5t0.5 11.5q4 24 25 41.5t44 17.5q24 0 38 -17.5t11 -41.5zM-36 577q2 11 -4.5 19t-16.5 8q-11 0 -20.5 -8t-11.5 -19t5 -18.5t17 -7.5q11 0 20 7.5t11 18.5z" />
    <glyph glyph-name="saraueeleftthai" 
d="M-336 519l6 35h187l10 56h35l-10 -56h38l10 56h35l-15 -90z" />
    <glyph glyph-name="maieklowleftthai" 
d="M-124 519l21 121h36l-20 -120z" />
    <glyph glyph-name="maitholowleftthai" 
d="M-223 519q11 12 19.5 20.5t15.5 16.5t12 14.5t6 10.5q1 8 -2.5 14.5t-15.5 6.5q-15 0 -26 -14l-22 18q10 13 24 20.5t30 7.5q29 0 39 -17t7 -34q-2 -8 -5.5 -15.5t-10.5 -14.5h129l-5 -33z" />
    <glyph glyph-name="maitrilowleftthai" 
d="M-138 519l23 32q6 6 8 17q2 14 -5.5 23t-21.5 9q-13 0 -23.5 -9.5t-14.5 -23.5h-32q2 14 -5.5 23.5t-20.5 9.5q-14 0 -24.5 -9t-12.5 -23q-3 -15 9 -26l-27 -23q-20 21 -14 49q4 26 26 45t48 19q29 0 45 -22q23 22 51 22q26 0 42 -19t12 -45q-1 -4 -2 -7.5t-3 -8.5h64
l-5 -32z" />
    <glyph glyph-name="maichattawalowleftthai" 
d="M-98 575l-10 -56h-35l10 55h-56l5 31h55l9 56h35l-9 -55h56l-5 -31h-55z" />
    <glyph glyph-name="thanthakhatlowleftthai" 
d="M-77 571q-8 0 -15.5 -6t-9.5 -17q-2 -8 7 -18l-28 -24q-16 18 -13 42q4 23 23 39.5t42 16.5h56l-6 -33h-56z" />
    <glyph glyph-name="maieklowrightthai" 
d="M8 519l21 121h35l-20 -120z" />
    <glyph glyph-name="maitholowrightthai" 
d="M-117 519q11 12 19 20.5t16 16.5q7 8 11.5 14.5t5.5 10.5q1 8 -2 14.5t-16 6.5q-16 0 -25 -14l-23 18q10 13 24.5 20.5t29.5 7.5q29 0 39.5 -17t7.5 -34q-3 -16 -17 -30h129l-5 -33z" />
    <glyph glyph-name="maitrilowrightthai" 
d="M-56 519l23 32q6 6 8 17q2 14 -5.5 23t-21.5 9q-13 0 -23.5 -9.5t-14.5 -23.5h-32q2 14 -5.5 23.5t-20.5 9.5q-14 0 -24.5 -9t-12.5 -23q-3 -15 9 -26l-27 -23q-20 21 -14 49q4 26 26 45t48 19q29 0 45 -22q23 22 51 22q26 0 41.5 -19t11.5 -45q-1 -4 -2 -7.5t-3 -8.5h79
l-5 -32z" />
    <glyph glyph-name="maichattawalowrightthai" 
d="M53 575l-10 -56h-35l10 55h-54l5 31h54l9 56h35l-9 -55h55l-5 -31h-55z" />
    <glyph glyph-name="thanthakhatlowrightthai" 
d="M2 571q-9 0 -15.5 -7t-8.5 -16t6 -18l-28 -24q-16 19 -13 42q4 23 23 39.5t42 16.5h56l-6 -33h-56z" />
    <glyph glyph-name="yoyingnobasethai" horiz-adv-x="750" 
d="M723 152q-6 -33 -23.5 -62t-43 -50.5t-56.5 -34t-64 -12.5t-60.5 12.5t-46 34t-26 50.5t-1.5 62l18 110q6 36 -2 65.5t-27 50.5t-48 32.5t-65 11.5q-45 0 -86.5 -23t-70.5 -56l30 -40l-45 -268h69l-5 -35h-104l48 291l-35 50q18 24 41 45t49.5 36.5t55.5 24.5t59 9
q45 0 80 -14.5t57.5 -40.5t31.5 -62t2 -78l-18 -109q-4 -26 2 -48.5t20 -39.5t35 -27t47 -10t50.5 9.5t44.5 26t33.5 39.5t18.5 50l50 298h35z" />
    <glyph glyph-name="maihanakatleftthai" 
d="M-121 519q-24 0 -37.5 17.5t-9.5 40.5l5 27h35l-5 -27q-2 -9 3.5 -15.5t14.5 -6.5h222l-5 -35z" />
    <glyph glyph-name="nikhahitleftthai" 
d="M-53 565q-4 -24 -25 -41t-44 -17t-38 17t-11 41q4 23 24.5 41t44.5 18t38.5 -18t10.5 -41zM-86 565q2 11 -4.5 18.5t-17.5 7.5t-20 -7.5t-11 -18.5t5 -19t18 -8t19.5 8t10.5 19z" />
    <glyph glyph-name="maitaikhuleftthai" 
d="M-208 645q-20 0 -36 -13.5t-19 -33.5q-4 -20 7.5 -33.5t31.5 -13.5t35 14t19 36h32q-4 -22 7.5 -36t31.5 -14t35 14t19 36h33q-3 -17 -12 -32t-21.5 -26t-28 -17.5t-31.5 -6.5q-20 0 -34 8.5t-22 22.5q-14 -14 -31.5 -22.5t-37.5 -8.5q-32 0 -51.5 23.5t-13.5 55.5
t32.5 55.5t59.5 23.5h217l-6 -32h-216z" />
    <glyph glyph-name="maiekupperleftthai" 
d="M-49 660l15 90h30l-15 -90h-30z" />
    <glyph glyph-name="maithoupperleftthai" 
d="M-125 660q10 11 18 20t15 17q16 18 18 24q2 8 -1 15t-16 7q-15 0 -27 -14l-21 18q9 12 23 20t30 8q29 0 39.5 -17t6.5 -35q-1 -12 -16 -30h128l-5 -33h-192z" />
    <glyph glyph-name="maitriupperleftthai" 
d="M8 660l21 31q6 7 6 13q2 11 -4 18t-17 7q-24 0 -28 -28h-32q2 13 -4.5 20.5t-16.5 7.5q-24 0 -29 -25q-1 -11 10 -22l-27 -24q-21 19 -16 46q5 24 24.5 41t43.5 17q23 0 38 -17q20 17 43 17q24 0 38.5 -17t9.5 -41q0 -3 -1 -5.5t-2 -5.5h66l-5 -33h-118z" />
    <glyph glyph-name="maichattawaupperleftthai" 
d="M-9 702l-7 -42h-35l7 42h-43l5 29h42l7 42h34l-6 -42h42l-5 -29h-41z" />
    <glyph glyph-name="thanthakhatupperleftthai" 
d="M-20 700q-8 0 -15.5 -6.5t-9.5 -16.5q-2 -8 7 -18l-28 -24q-18 19 -13 42q4 23 22.5 39.5t41.5 16.5h55l-5 -33h-55z" />
    <glyph glyph-name="lochula.short" horiz-adv-x="521" 
d="M560 492q-5 -29 -16 -45.5t-33 -23.5q20 -15 24 -35t-1 -49l-38 -226q-4 -24 -16.5 -45.5t-31 -37.5t-41.5 -25t-47 -9q-32 0 -56 15t-35 40q-20 -25 -48.5 -40t-60.5 -15q-24 0 -44 9t-33.5 25t-19.5 37.5t-2 45.5l57 337h35l-57 -337q-5 -35 15 -58.5t54 -23.5
q18 0 34 6.5t28.5 17.5t21.5 26t12 32l35 206h35l-35 -206q-5 -35 15 -58.5t54 -23.5q35 0 63 23.5t33 58.5l38 224q7 40 -9 59t-46 19h-41l5 30h44q42 0 56 10.5t18 37.5l1 4h34z" />
    <glyph glyph-name="rulakkhangyao" horiz-adv-x="658" 
d="M587 -170h-36l77 458q10 63 -15 99.5t-88 36.5q-55 0 -95 -34q18 -25 25 -58t0 -71l-72 -432h-35l72 432q6 36 -2 65.5t-27 50.5t-48 32.5t-65 11.5q-45 0 -86.5 -22.5t-70.5 -55.5l30 -41l-45 -267h69l-5 -35h-104l48 291l-35 50q18 24 41 45t49.5 36.5t55.5 24.5t59 9
q77 0 125 -42q49 42 124 42q40 0 68 -12.5t44.5 -34t21 -50.5t-1.5 -61z" />
    <glyph glyph-name="lulakkhangyao" horiz-adv-x="668" 
d="M597 -170h-36l77 458q10 63 -15 99.5t-88 36.5q-56 0 -94 -34q17 -25 24 -58t0 -71l-72 -432h-35l72 433q6 36 -2 65.5t-27 50.5t-48 32.5t-65 11.5q-45 0 -86.5 -23t-70.5 -56l30 -41l-50 -302h-81l5 35h46l43 257l-35 50q17 24 40 45t50 36t56 24t59 9q78 0 125 -42
q49 42 124 42q40 0 68 -12.5t44.5 -34t21 -50.5t-1.5 -61z" />
    <glyph glyph-name="yamakkanleftthai" 
d="M-2 699q-10 13 -28 13q-19 0 -34.5 -13t-18.5 -32t8.5 -32t32.5 -13l-6 -31q-21 0 -36.5 -13t-18.5 -32t8 -32t32 -13l-5 -32q-34 0 -52.5 22.5t-13.5 54.5q3 19 14 34.5t26 25.5q-26 23 -20 61q5 32 31 54t58 22t48 -22z" />
    <glyph glyph-name="saraamleft" horiz-adv-x="322" 
d="M279 0h-35l48 287q10 63 -15 99.5t-88 36.5q-60 0 -97 -34l-20 24q23 20 54 31.5t70 11.5q41 0 69 -12.5t44 -34t20.5 -50.5t-1.5 -61zM-53 565q-4 -24 -25 -41t-44 -17t-38 17t-11 41q4 23 24.5 41t44.5 18t38.5 -18t10.5 -41zM-139 564q-2 -11 5 -18.5t18 -7.5
t19.5 7.5t10.5 18.5t-4.5 19t-17.5 8t-20 -8t-11 -19z" />
    <glyph glyph-name="sarainarrowthai" 
d="M-281 520l5 35h325l-5 -35h-325z" />
    <glyph glyph-name="saraiinarrowthai" 
d="M-281 520l5 35h290l11 65h35l-16 -100h-325z" />
    <glyph glyph-name="sarauenarrowthai" 
d="M57 577q-4 -23 -23.5 -40t-42.5 -17h-272l5 35h218q-1 5 -1.5 10.5t0.5 11.5q4 24 24.5 41.5t43.5 17.5t37.5 -17.5t10.5 -41.5zM25 577q2 11 -4.5 19t-17.5 8q-10 0 -19.5 -8t-11.5 -19t5 -18.5t18 -7.5q10 0 19 7.5t11 18.5z" />
    <glyph glyph-name="saraueenarrowthai" 
d="M-281 520l5 35h218l11 65h35l-11 -65h37l11 65h35l-16 -100h-325z" />
    <glyph glyph-name="sarauchochanthai" 
d="M-183 -160l13 80h-41l6 36h55q8 0 13.5 -6.5t4.5 -14.5l-16 -95h-35z" />
    <glyph glyph-name="sarauuchochanthai" 
d="M-107 -95q-5 -30 -30.5 -51.5t-55.5 -21.5t-47 21.5t-12 51.5l2 15h-31l6 36h65l-8 -51q-3 -16 6 -27t25 -11t28.5 11.5t15.5 26.5l8 51h36z" />
    </font>
</defs>
</svg>
